<mxfile host="app.diagrams.net" modified="2024-01-12T14:55:22.212Z" agent="Mozilla/5.0 (Macintosh; Intel Mac OS X 10_15_7) AppleWebKit/605.1.15 (KHTML, like Gecko) Version/16.6 Safari/605.1.15" etag="WyXEhvKjrffJwb_Zq6UL" version="22.1.18" type="device">
  <diagram id="VSonYBTWD9tIh3ItvH2c" name="Page-1">
    <mxGraphModel dx="1143" dy="729" grid="1" gridSize="10" guides="1" tooltips="1" connect="1" arrows="1" fold="1" page="1" pageScale="1" pageWidth="827" pageHeight="1169" math="0" shadow="0">
      <root>
        <mxCell id="0" />
        <mxCell id="1" parent="0" />
        <mxCell id="W4Yr8RHfZ50mKKwitmoW-132" value="" style="rounded=1;whiteSpace=wrap;html=1;fillColor=#CCCCCC;strokeWidth=3;" parent="1" vertex="1">
          <mxGeometry x="361.5" y="224" width="293" height="60" as="geometry" />
        </mxCell>
        <mxCell id="W4Yr8RHfZ50mKKwitmoW-134" value="" style="endArrow=classic;html=1;rounded=0;strokeWidth=3;fillColor=#dae8fc;strokeColor=#6c8ebf;" parent="1" edge="1">
          <mxGeometry width="50" height="50" relative="1" as="geometry">
            <mxPoint x="247" y="256" as="sourcePoint" />
            <mxPoint x="350" y="256" as="targetPoint" />
          </mxGeometry>
        </mxCell>
        <mxCell id="W4Yr8RHfZ50mKKwitmoW-135" value="" style="endArrow=classic;html=1;rounded=0;strokeWidth=3;fillColor=#d5e8d4;strokeColor=#82b366;" parent="1" edge="1">
          <mxGeometry width="50" height="50" relative="1" as="geometry">
            <mxPoint x="665" y="256" as="sourcePoint" />
            <mxPoint x="787" y="256" as="targetPoint" />
          </mxGeometry>
        </mxCell>
        <mxCell id="W4Yr8RHfZ50mKKwitmoW-136" value="&lt;font style=&quot;font-size: 16px;&quot;&gt;&lt;font style=&quot;font-size: 16px;&quot;&gt;stdou&lt;/font&gt;t&lt;/font&gt;" style="text;html=1;strokeColor=none;fillColor=none;align=center;verticalAlign=middle;whiteSpace=wrap;rounded=0;fontFamily=Comic Sans MS;fontStyle=1;fontSize=16;" parent="1" vertex="1">
          <mxGeometry x="694" y="223" width="60" height="30" as="geometry" />
        </mxCell>
        <mxCell id="W4Yr8RHfZ50mKKwitmoW-137" value="&lt;font style=&quot;font-size: 16px&quot;&gt;&lt;font style=&quot;font-size: 16px&quot;&gt;command&lt;/font&gt;&lt;/font&gt;" style="text;html=1;strokeColor=none;fillColor=none;align=center;verticalAlign=middle;whiteSpace=wrap;rounded=0;fontFamily=Comic Sans MS;fontStyle=1;fontSize=16;" parent="1" vertex="1">
          <mxGeometry x="438" y="239" width="60" height="30" as="geometry" />
        </mxCell>
        <mxCell id="W4Yr8RHfZ50mKKwitmoW-138" value="&lt;font style=&quot;font-size: 16px;&quot;&gt;&lt;font style=&quot;font-size: 16px;&quot;&gt;stdin&lt;/font&gt;&lt;/font&gt;" style="text;html=1;strokeColor=none;fillColor=none;align=center;verticalAlign=middle;whiteSpace=wrap;rounded=0;fontFamily=Comic Sans MS;fontStyle=1;fontSize=16;" parent="1" vertex="1">
          <mxGeometry x="268" y="221" width="60" height="30" as="geometry" />
        </mxCell>
        <mxCell id="W4Yr8RHfZ50mKKwitmoW-139" value="&amp;lt;ifile" style="text;html=1;strokeColor=none;fillColor=none;align=center;verticalAlign=middle;whiteSpace=wrap;rounded=0;fontFamily=Comic Sans MS;fontSize=23;" parent="1" vertex="1">
          <mxGeometry x="502" y="239" width="90" height="30" as="geometry" />
        </mxCell>
        <mxCell id="W4Yr8RHfZ50mKKwitmoW-140" value="" style="shape=image;verticalLabelPosition=bottom;labelBackgroundColor=default;verticalAlign=top;aspect=fixed;imageAspect=0;image=data:image/png,iVBORw0KGgoAAAANSUhEUgAABAAAAAQACAYAAAB/HSuDAAAgAElEQVR4nOzdfZCd1X0n+N95bkutF6TbMglYGFqCrdgbowYMzgvQBCWoKpRaEiRxp9WNU2h27arA1KyVdU0N1MyU5dTuwtTUVjRVU5BKtmJlE0QITko2ku3ZscvK0J6ZZGwvprGztnew6KTMxhnHyDEWnkH97B8tgQBJ/XbvPc9zn8+nikrcun3vV75Vts/3Oed3IgAAAAAAAAAAAAAAAAAAAAAAAAAAAAAAAAAAAAAAAAAAAAAAAAAAAAAAAAAAAAAAAAAAAAAAAAAAAAAAAAAAAAAAAAAAAAAAAAAAAAAAAAAAAAAAAAAAAAAAAAAAAAAAAAAAAAAAAAAAAAAAAAAAAAAAAAAAAAAAAAAAAAAAAAAAAAAAAAAAAAAAAAAAAAAAAAAAAAAAAAAAAAAAAAAAgKVKuQMAABGTk7tvX+g1c3PphpRi6GKvKctyKKW4oXPJlq8s45mU0kvn/uyP/uiTH82VBwCaTgEAACs0NbVzS1m2tka8dZFeluWbFu1pa0Rs7WW+KivLeCml8plz/vVrpUFZxktF8fqfPf74U3+WIyMA9AsFAAC8ydmn8XNzMZRSOvM0vdwaZxbuZbnwk3i66kREeWK+PEjnlAflM0URL6V0+sThw596IWM+AKgkBQAAjTM5ufv2Nz6pL7dHRJRlqsz2eVbujbsL0vH5n5XPtFqnn1EQANBECgAA+tLExK7ri6K4oSxja0S53VN73uzNBUFK5fGIiFdfPfXMk09+9mTGaADQFQoAAGprYmLX9RFp6/w2/dee4lvo0yknyrJ85uwxg5TK4+YQAFBnCgAAKu31AXtpq6f5VEFZxjMR5fGU0kuOFABQJwoAACpjfvhe2jo3V94wfxY/bc+dCZbgtR0DKcWJubm5Z5544uhXcocCgLMUAAD03Nmn+mWZtpdlecP8Nn7D9+hX5fGIOFGW6ZmiKJ9xjACAXBQAAHSVYXzwVq8PIEzHHSMAoFcUAAB0zJuf7M8P54utuXNBHZwpBY7YKQBAtygAAFi2ycndt8/NpRtSKm8oy3S3J/vQWWUZz6RUPlOW6Zm5uR8ecj0hACuhAABg0c5Z8N9tKz9k8dqgwbKcO2LIIABLoQAA4LzGx3e0i2Lt9ojYbiI/VFl5qCzTMxFzxxUCAFyMAgCAiHh9wZ9S3H1msb81cyRgic4OFyzLdEQhAMCbKQAAGsqCH/rf2cGCKaXjc3NzzygEAJpNAQDQIBMTu65Pqbg7otxuSz80z7mFwKuv/vCIoYIAzaIAAOhjExO7ro8otqdU3m3BD7zZ/C0DcSSl8rhrBwH6nwIAoM9MTOy+K6W427V8wFKUZbwUUR4vinQkpVePHz78qRdyZwKgsxQAADU3NbVzS1kObC/LcrtFP9ApZRnPzBcCccTuAID+oAAAqKHJyd23z83ND++bv6IPoHvO7g6IiENPPPHUJ3LnAWB5FAAANWHRD1RFWZZHItLxVuvVI44KANSHAgCgwiYmdt8VEdsj0j5b+4EqUgYA1IcCAKBizi76U0r7c2cBWJryeFmmI8oAgGpSAABUwMTEruvnF/xpe0RszRwHoAOUAQBVowAAyGRqaueW06db+23vB/qdYwIA1aAAAOihqamdW+bmBvZFxL7wpB9opPJ4SunQq6/+8MiTT372ZO40AE2iAADosvHxHe2iWLcvotyeUro7dx6AKijLeCml8khKcejxx5/6s9x5AJpAAQDQJZOTu28vy9gXkfblzgJQcSfmdwYoAwC6SQEA0EFnn/anFPvDFn+A5TgREYeK4tVD5gUAdJYCAGCFxsd3tAcG1t1dluV2T/sBOsMRAYDOUwAALNPZq/vKMt1tij9AV50oyzjoFgGAlVEAACzRmbP9ByLS9txZAJqmLMsjRZGOPP74J38/dxaAulEAACyCs/0AlXOiLOPg3NwPD7lOEGBxFAAAF2GSP0D1lWV5JKI88MQTR7+SOwtAlSkAAM5jYmL3XSmlg+FpP0BtlGU8M18EPPWJ3FkAqkgBAHDG1NTOLXNzA/siYl9Y+APU2YmIOHT69A8POh4A8DoFANB4U1M7t5w+3dqfUtqfOwsAnXP2KsGyLA86HgCgAAAa7Mw1fgdN8wdogvJ4SnHg8cef+rPcSQByUQAAjTMxsfuuiHQgpbghdxYAeq08XpbpiNsDgCZSAACNMD6+oz0wsO7usowD4Xw/QOPNHw+Ig+YEAE2iAAD62vj4jnartW5/Wcb+lGIodx4Aqqg8VBSnDxw+/KkXcicB6CYFANCX5if6tw6UZbrbwh+AxSkPGRgI9DMFANBXzi78I9K+3FkAqCsDA4H+pAAA+sLk5O7b58/3m+gPQKeUx8syDj7xxFOfyJ0EoBMUAECtWfgD0AMn5ncEfPL3cwcBWAkFAFBLFv4AZHAipXKfowFAXSkAgFqZnNxzb1mW+yz8AcjIjgCglhQAQC3ML/zjQERszRwFAM5SBAC1ogAAKm1iYvddKaWDYeEPQEWVZTxTFHFQEQBUnQIAqCRn/AGooRNlWe53awBQVQoAoFIs/AGov/L4/NEAwwKBalEAAJVg4Q9A/1EEANWiAACympjYdf38GX8LfwD6VXmoLMuDTzxx9Cu5kwDNpgAAspia2rllbq51ICLty50FAHqhLMuDrdbpg4cPf+qF3FmAZlIAAD23d+/uj1n4A9BEZRkvpRQHT5/+4cEnn/zsydx5gGZRAAA9Mzm55975c/6u9AOg2coyXiqK2O/qQKCXFABA101O7r59bi4dTCluyJ0FACrmRErlPoMCgV5QAABdc+ac/yED/gBgIeXxsiz3GxQIdJMCAOi48fEd7aJYeyCltD93FgCol/JQUZw+YFAg0A2t3AGA/jIxsedDRbHqUErpztxZAKB+0g1zc8W+bdve9cpXv/r1P8+dBugvdgAAHTExsev6iOKQc/4A0BllGc9ElAeeeOKpT+TOAvQHBQCwImfO+R9wrR8AdEt5vChO73MsAFgpRwCAZZuY2POhsiz+KKX0s7mzAED/SlvLsti/bdu74rnnvu62AGDZ7AAAlsx2fwDI5kRKceDxxz/5+7mDAPWjAAAWbXx8R7vVWnvQdn8AyM2xAGDpFADAokxM7PlQRBxIKYZyZwEAXnPg9OkfHnzyyc+ezB0EqD4FAHBRZ4b8HYpI23NnAQDO60RK5b7HH3/KfADgohQAwAXt3bvnIxFxIHcOAGBhZVkemZs7tc9uAOBCFADAW0xO7r59bi4dNOQPAOqlLOOliDjwxBOf/Fe5swDVowAAXjM+vqNdFGsPpJT2584CAKxEebwsy/1PPHH0K7mTANWhAAAiImJiYvddKaWDEbE1dxYAoGMMCQReowCAhjvz1P9QSunu3FkAgK4wJBCIiIhW7gBAPhMTez6U0qojKSVn/QGgfw1FpH3btr0rnnvu60oAaDA7AKCBPPUHgMayGwAaTAEADTMxsfuuiHQopRjKnQUAyKU8dPr0qf1mA0CzKACgIaamdm45fbp10FN/ACBi/srAoijvthsAmkMBAA3gqT8AcCFlWR6cmzt1wG4A6H8KAOhjzvoDAIt0oizn7n7iiaNfyR0E6B4FAPQpT/0BgKWyGwD6mwIA+syZp/4HUkr7c2cBAGrJbgDoU63cAYDOmZjYdX1Kq4/Y8g8ArMBQSunXt217Vzz33NcNCIQ+YgcA9ImJiT0fSikO5s4BAPST8nhRnN53+PCnXsidBFg5BQDU3PyW/3XHU4obcmcBAPrP/HWBsf/xxz/5+7mzACujAIAam5zcffvcXDpi0B8A0G1lWR6Zmzu1z4BAqC8FANTQ+PiOdqu19mBE2pc7CwDQKCdSKvc9/vhTZgNADRkCCDVzzqC/O3NnAQAaZygi7TMgEOrJDgCokYmJPR+KiAO2/AMAuZVlPNNqvXq3AYFQHwoAqIH5QX9rD7neDwCokrKMlyLKfU888dQncmcBFuYIAFTcxMSu64ti9fGU0s/mzgIAcK6UYk1Kae+1175z6Ktf/ca/yZ0HuDg7AKDCJif33FuWcSh3DgCAhZXHi+L0PkcCoLoUAFBBpvwDAHVUlvFSUcT+xx//5O/nzgK8lSMAUDFTUzu3RAx+xpR/AKBuUoo1EXG3WwKgmuwAgAqZmNjzoZTiYO4cAAAr50gAVI0CACrAln8AoB/N3xIwt/2JJ45+JXcWwBEAyG7+ir91x235BwD6zZlbAn7dkQCoBjsAIKOJiV3XRxTHU4qh3FkAALqrPHT69Kn9Tz752ZO5k0BTFbkDQFPNn/cvnrH4BwCaIe0rinXH5x+AADnYAQA95rw/ANBk83MByn1PPPHUJ3JngaYxAwB6aGJi1/UprT7ivD8A0FRn5gLsNRcAes8OAOiRiYndd0WkQ7b8AwCcZS4A9JICAHpgcnLPvWUZh3LnAAComrKMZyLm9rkqELpPAQBd5Lw/AMDC5ucCzG1XAkB3mQEAXTI1tXNLxOBnnPcHALi4M3MBft1cAOguBQB0wfz1Nq3PpBT/fe4sAAA1sn3btndufe65b7ghALrAEQDosMnJPffOzcVBw/4AAJanLOOZubkfbjccEDqryB0A+snExJ4PlWWY9A8AsAIpxQ1Fse74/K5KoFMcAYAO2bt398dSSg/kzgEA0A9SirdHpL3XXfeu/++5575uOCB0gCMAsELj4zvaRbHueEpxQ+4sAAD9qCxj/xNPfPJf5c4BdWcHAKzA65P+Lf4BALolpbjTcEBYOTsAYJnmz6QVx533BwDolfL46dOn7jYcEJbHEEBYhomJ3XdZ/AMA9FraXhTrjo+P72jnTgJ1pACAJZqY2POhlNIRi38AgN47c0PACTcEwNIpAGAJ5if9x8HcOQAAmmz+QUxxfH5XJrBYhgDCIu3du/tjEWlf7hwAAESkFGtSSntHRt51wjWBsDiGAMICXPMHAFBtZVkefOKJp34jdw6oOjsA4CIs/gEAqi+l9LOuCYSF2QEAF+CaPwCAeinLeGZu7ofbXRMI56cAgPOw+AcAqCclAFyYWwDgTSz+AQDq68w1gcenpnZuyZ0FqkYBAOeYnNxzr8U/AEC9pRQ3nD498Mz8gx3gLAUAnDExsedDZRmHLP4BAOpv/n/TFccnJnbflTsLVIUZABARe/fu/lhE2pc7BwAAnZdSuf3xx5/6s9w5IDc7AGg8i38AgP5Wlun4/FFPaLZW7gCQk8U/AEBj3L1t27viuee+bicAjaUAoLEs/gEAGmf7tde+66WvfvXrf547COSgAKCRLP4BAJoppbhz27Z3bn3uuW98IncW6DVDAGmU8fEd7aJYdzyluCF3FgAAcioP/dEfPfUPcqeAXlIA0BgW/wAAvFF56PTpU/uffPKzJ3MngV4YyB0AesHif3k2v/2yWLN2Te4YAI2XPLOBbtnXHtow9OSTn/2l3EGgF/y3CX3P4v/Crr56OK54+2Vx9dXDsWlTO67YfHnuSACcR0pFpOT2ZuiWMuKZjWWx/W3/3XvtBKCvKQDoaxb/b7X57ZfFHb8wGtdcPRxrPd0HqA0lAHSXEoAmUADQtyz+X7dmzWDc9J6RuPWWn4pNm9q54wCwTEoA6C4lAP1OAUBfmprauWVubuB4RGzNHCW7G98zEjt+YdTCH6BPKAGgu5QA9DMFAH3Hk/95Z7f6X/vud+aOAkCHKQGgu5QA9CsFAH1lamrnltOnB440ffF/43tGYtfOO5zxB+hjSgDoLiUA/ch/a9A3xsd3tOfmBhr/5P/qq4ct/gEaoCznoizncseAvpUibvh+mjv+d//5i85R0jfsAKAv2PY/79ab3xu7xnbkjgFAD9kJAN1VRnliY9m6wU4A+oECgNqz+J/3vl8ei5tuHMkdA4AMlADQXY4D0C8UANSaxf88i38AlADQXUoA+oH/lqC2LP7n3fELoxb/AJgJAF1mJgD9QAFALVn8z3v3T/5E7PiF0dwxAKgIJQB0lxKAulMAUDsW//PWrBmM9/3yWO4YAFSMEgC6SwlAnSkAqBWL/9f92j2/4qo/AM5LCQDdpQSgrhQA1IbF/+uuvno4rrl6OHcMACpMCQDdpQSgjhQA1ILF/xuN2/oPwCIoAaC7zpYAuXPAYikAqDyL/ze68T0jsWmTohmAxVECQHeliBtOPP8Xn7cTgDpQAFBpFv9vdest780dAYCaUQJAd6WI7d9Pc0dy54CFKACoLIv/t9r89sviis2X544BQA0pAaC7UsT2F/7zX3wsdw64GAUAlWTxf3433jiSOwIANaYEgC5Lse9b/++fH4qIlDsKnI8CgEqy+D+/a3/ynbkjAFBzSgDorqJI9/4/z/3Zvw4lABU0kDsAvNnevbs/FmHx/2ZDQ+1aDP97/vnZeP5bs/Hit/8mTr3yo/O+Zu2awdh8xeVxzdXDcc019b7O8HvfOxnPPz8bL774N/HtF79zwdddsfmy2Lz58rjmmuFafI8X07TvGPrR2QIgJc+CoBvWrlt7/1/8x6Nf/emf3fVoRJS588BZWikqZX7xn/blzlFFN75nJMZ/pZrX/331a9+Ir33tm/HlL88s6/dvvHEk3v3un4hr312PHQ6nTr0SX/j3X4wvfWkmXnrp5JJ/f2ioHTfdNBK33vLeWLt2TRcSdl7TvmNoipQKJQB00d985zv/UAlAlSgAqAyL/4sb23lHjN7yU7ljvMFXv/aN+MIXvhjf+tZsR97v6quH49Zb31vZReKpU6/E5z43HV/68ky8coEn30uxZs1g3HTjSNxxx2hli4CmfcfQREoA6C4lAFWiAKASLP4X9sH/cSquuboaW6lPnXoljh773LKfBi/kxhtHYtfYHZVaFD///Gz8wR/+SUcW/m+2Zs1g/Nr7f6VSW+Wb+B1DkykBoLuUAFRFK3cAmJzcc29EOpA7R9Xdest7Y8OGS3LHiO9972R87NAfxze/+a2ufcaLL34nvvHN5+Od77ymEgvE6S/8p/ijJz4Zr756uivv/+qrp+PLX56JNWsGY3j4HV35jKVo4ncMzK9JUvJsCLph3bp1o7f+7I3/4ck/OdaZLXWwTAoAspqc3HNvWcah3Dnq4JfuujN3hPj2t/8mHv3t/zNeeun7Xf+sH/zg5fjSl2finT9xTdbi48mPH4t/9+/+Y08+65vf/FZ873sns26Pb+J3DJylBIBuSSmtueIdm3/pp28a+fM/PfKZF3LnobkUAGRj8b80O35hNOvnnzr1Svzu//F4/OAHL/fsM1999XR84xvfiptuHIlVq3p/acn0F/5Tzxb/Z7344ney7QRo4ncMvJkSALolpbTmyuEr7/6vP/jhH3/x/555KXcemkkBQBYTE7uuj0ifyZ2jTnIWAPMLw8PxX/7L3/X8s1955UfxjW8+H9dd95M9XSB+6Usz8YlP/Juefd65vvnNb8WmoXZcccXlPfvMJn7HwIUoAaBbUkprfuaW997x314+9RklADkoAOi5+cV/cTylcPB3CXIWAB879MfxV3/17Wyf/4MfvByzf/XtuOmmkZ583vPPz8YfPvanPfmsC/naX34zrrl6ODZtavfk85r2HQMLUQJAt7SK4jIlALkY90pPnbP4H8qdhcX57OemO3YF3Ep861uz8dnPTXf9c06deiX+4A//pOufsxh/8Id/EqdOvdL1z2nadwwsTlnORVnO5Y4BfWnVwMC2f/ihD/5vEXFpuJmNHlIA0DPj4zvaKRVHLP7r49vf/pv4XIUWZJ/73HR8+9t/09XP+PjHj3Xlqr/leOWVH8XHP36sq5/RxO8YWDwlAHTPhg3rJ577yuf/dSgB6CEFAD0xPr6jXRTrjkfE1sxRWIKjxz6XO8JbdDPT88/Pxtf+8ptde//l+NpffjOef757T+eb9h0DS6cEgO7ZsGH9xJ99/uP3hBKAHlEA0BNFse54SnFD7hws3vPPz1ZiW/ibfetbs11bEFd1+3m3cjXxOwaWRwkA3bN1y/BBJQC9ogCg6/bu3f0xi//6+dKXZ3JHuKBuZPve905WcjEcMb8g/t73Tnb8fZv2HQMrowSA7tm6Zfjg7/3Ov7whlAB0mQKArtq7d/fHItK+3DlYmlOnXokvV3gB9uUvz3R8ON4XvvCfOvp+ndbpfE38joGVUwJA9/z8HT/3cSUA3aYAoGsmJvZ8yOK/np6v6JPwc3U6Y9X/zk37+0bUIyM0kRIAuqNIqf1z22/9rfeP77k0IjbmzkN/UgDQFZOTu29PKQ7mzsHyfKsG5687mfHUqVfixRe/07H364YXX/xOR5+IN+07BjpLCQDdsWpgYNuB//WBj79/fM/bI+JtufPQfxQAdNzExK7r5+bSkdw5WL5vV3wxHNHZjFVf/J/VyZxN+46BzlMCQHesGhjY9sA/+42PRsRgRLRz56G/KADoqKmpnVsiiuMpxVDuLCzfiy9W/x72Tmb8dg3+vhGdzdm07xjoDiUAdMeGDesnvvKlf/vRiFgXSgA6SAFAx4yP72ifPj1wxOK//l555Ue5Iyyokxnr8PeNaN7fuQ4ZASUAdMvQpvYH/+zzH//VUALQQQoAOqYo1h133R8ANI8SALpjePiqj/7e7/zLa2O+BFiXOw/1pwCgI/bu3f0xi38AaC4lAHRekVL75+/4uY+/f3zPxpjfBbA2dybqTQHAiu3du+cjrvsDAJQA0HlFSu0zNwNsjIihUAKwAgoAVmRiYvddEXEgdw46a2io+sfMOplxUw3+vhGdzdm07xjoHSUAdN45NwNERGyMiIGceagvBQDLNjGx6/qIdCh3Djpv06bqL7w6mbEOf9+I5v2d65AROD8lAHTehg3rJ774F5/5cMyv4S4NJQDLoABgWcbHd7QjikMm/venKzZfljvCgjqZcXMN/r4Rnc3ZtO8Y6D0lAHTej//Y2z585maAsyVAK3MkakYBwLIUxdpDhv71r6uvGc4dYUGdzLh27ZrKlwCbN18Wa9eu6dj7Ne07BvJQAkDnnXMzQBERmyIiZY5EjSgAWLK9e/d8JKV0d+4cdM81V1d/4dXpjFX/Ozft7xtRj4zAwpQA0FlFSu2f237rb50ZCrgq5ncCKAFYFAUAS2LoXzOsXbsm3v2TP5E7xgW9+yd/oqNPwyMibrxxpKPv12mdztfE7xjIRwkAnbVqYGDbP//Nf/x7Z/9lKAFYJAUAizY1tXOLoX/NceNN1V0QdyPbFVdcXtljAJs3XxZXXHF5x9+3ad8xkJcSADprzeDgLV/50r89ezPAqgizuViYAoBFGR/f0T59euCIoX/Nce2731nJa9iGhtpx7bvf2ZX3vvWWn+rK+65Ut3I18TsG8lICQGcNbWp/8MxQwIiINRFxSc48VJ8CgEVptdYeMfSvecbfN5Y7wlt0M9NNN43E1RU7d3711cNxUxefhjftOwbyUwJAZ23dMnzwzFDAiIgNEbE2Zx6qTQHAgvbu3fORiLQ9dw5675prhit1Nv7GG0fimi5Phq/a4rPbeZr4HQP5KQGgs84ZChgxfxRgdc48VJcCgIsy9I9dY3dUYpv40FA7do3d0fXP2bSpHWM9+JzFGBu7IzZt6v6/9037joFqUAJA56waGNj2Tz/yPx8850ebImIgVx6qSwHABRn6R8T8tPhfe/8vx5o1g9kyrFkzGL/2/l/u2VT40Vt/KvtT8RtvHInRW3szk6CJ3zFQDUoA6Jx169bd+cW/+MyHz/zLItwMwHkoALggQ/8464orLo8PfmAqywJxzZrB+OAHproyBf9ixt83lq0EuPHGkZ4fRWjidwxUgxIAOufHf+xtH/7TJ3/35jP/UgnAW7RyB6Ca9u7d/bGU0p25c/C6Hb8wmvXzN2y4JH7mp98T3/jm8/GDH7zck8/cvPmy+J/+0f8Qb3tbnh7q2ne/MzYNteNrf/nNnn3m+35lLHbsyPNdN/E7BqqijIiIlKxTYKXevvnyO7/74nf+4Nmvff1HMb/eWxURpzLHoiLsAOAtJif33BuR9uXOQfWsXbsmPviBqdi8+bKuf9bmzZfFBz8wlX1L+E03jcT7fqU3T+Pf9ytjXZ34vxhN/I6BarATADqjSKn9z3/zH//eOT8ajIj8w36oBDsAeIOJiV3Xl2X6o5TC/yKvmNw7AM5atWogrrvuJ+Pvf/ByvPjid7ryGTfeOBKTe++qzMLwiisuj2uuHo6vfe0b8eqrpzv+/mvWDMY/2DcR1177zo6/93I08TsGqsJOAOiEgYGBq95/z6/E7/zuH/6HMz9aFRFzEfHfMsaiAvynK68ZH9/RLop1x1OKG3Jn4a0e+l8eyB3hLZ5/fjaOHvtsxxaJmzdfFrvGdlT2GrhTp16JL/z7L8bnPjfdsfe8447RuPWW91Z2Idy07xiohpSKSMlGVVipEy/M7r/959/3x+f86KVwHKDR7ADgNdddd+1vO/dfXVXZAXCuTZva8TM/857YNNSOU6/8KF566eSy3ufqq4djxx2j8Ut339mTa++Wa9WqgbjmmuG46cxwwL/92+8ua0fAmjWD8TM//Z6Y3HtXXPvud8aqVdW9padp3zFQFXYCQCdsbG+8+fpt7zr+iaf+7d+e+dHqiPhRzO8GoIH8pyoRMX/uvyzjUO4cXFgVdwC82fe+dzK+9OWZeP752Xjxxb+JV1750Xlft2bNYGzefPlri+k6Lwi/9KWZeP5b83/fiz0l37z5svm/89XD2c/5r0QTv2MgHzsBYOX+26uvPnfgnz78vj988pPfP/OjuYj4Tpxt2mgUBQAxMbHr+ojiuCv/qq0OBQAAdJoSAFbu7//+5Se2Xf/zv3HOj34UEX+XKw/5+E/Thhsf39GOKA5Z/AMAVeR2AFi5DRvWT/xfn378F8/5kZsBGkoB0HCt1tqDhv4BAFWmBICV+4l3XnPwod984MpzfrQuItbmykMeCoAGm5zcc29E2pc7BwDAQpQAsDJFSu3xvXt+7/3jezae8+OhmN8NQEMoABpqamrnlrm5OJg7B1jFreUAACAASURBVADAYikBYGVWDQxse+Cf/cZH3/TjoXA7XGMoABrq9OmBI879AwB1owSAlTnPPIAiIjaFAfGNoABooImJ3b/l3D8AUFdKAFiZ88wDWBURGy/0evqHAqBhJiZ235VS2p87BwDASigBYPnOzgN404/XnfmHPqYAaJD5K//Sodw5AAA6QQkAy7dqYGDbF//iMx9+04/bYShgX1MANEirtda5fwCgrygBYPl+/Mfe9uE/ffJ3b37Tjw0F7GMKgIY4c+Xf9tw5AAA6TQkAy3f9DdsOvulqQEMB+5gCoAFc+QcA9DslACzPQKt11XmuBjQUsE8pABrAlX8AQBMoAWB5znM1YMT8QMC1OfLQPQqAPrd3756PuPIPAGgKJQAsz3muBoyYnwcwkCMP3aEA6GOTk7tvj4gDuXMAAPSSEgCWrkip/cvjY+c7NnxpmAfQNxQAfWp8fEe7LF35BwA0kxIAlm7N4OAt//HfH/3Am35cxHwJQB9QAPSpVmvtwYjYmjsHAEAuSgBYus1vv+w3f+93/uW1b/qxoYB9QgHQhyYmdt8VkfblzgEAkJsSAJbu9p8f/b03XQ0YEbE+IgZz5KFzFAB9Znx8RzvC1n8AgLOUALA0A63WVf/4gX/04fP80VBEtHqdh85RAPSZolh7yJV/AABvpASApRna1P7geY4CFBGxKUceOkMB0EcmJnbflVK6O3cOAIAqUgLA0vzc9lt/6zw/XhURl/Q6C53hOoc+MT6+o10U6054+t+/Pv3pz+eOAAB9Yf369TE46CgzLMbp06d/d3b2rz9ynj96KSJO9ToPK2MHQJ+w9R8AYHFefvnl+NGPfpQ7BtRCq9X64ObNl918nj/aGBEDvc7DyigA+oCt/wAAS6MEgMUbHFxzcMOGwTffClBEeABZNwqAmjP1HwBgeZQAsDgppas2bfrx890KsCrmdwJQEwqAmrP1HwBg+ZQAsDgXOQqwPiIM1agJBUCN2foPALBySgBYnAscBYiYPwpgwHwNKABqanx8RzuldDB3DgCAfqAEgIVd5ChAERGbep2HpVMA1FRRrD0QEVszxwAA6BtKAFhYq9X64OWXX3rtef5oMCLW9ToPS6MAqKHJyd23p5T2584BANBvlACwsDVr1v/WBf6oHa4GrDQFQA3Nzdn6DwDQLUoAuLiiSNuuuuod5zsKEGEeQKUpAGpm7949H0kpbsidAwCgnykB4OIGBgY+fIGjAKsiYkOv87A4CoAamZrauaUsw9Z/AIAeUALAxa1Zs/6jF/gjVwNWlAKgRubmWodSiqHcOQAAmkIJABdWFOmWK6/c/KsX+GNHASpIAVATExO774pI23PnAABoGiUAXNjAwOqPbtgwuPE8f1REeHhZNQqAGhgf39GOSIdy5wAAaColAJxfStF+29suu9CQ8jXhasBKUQDUQKu19qCt/wAAeSkB4PyKorhz8+bLbr7AH2+IiFYv83BhCoCKm5zcfXtE2pc7BwAASgC4kMHBNQcvchRgU6/zcH4KgIorS1v/AQCqRAkAb5VSumpo6Mc+eIE/XhURl/QyD+enAKiwyck990bE1tw5AAB4IyUAvFWrNfCBSy/deOUF/nhDRAz0Mg9vpQCoqPHxHe25ubjQMA0AADJTAsAbpRTtSy4ZutgaxlyzzBQAFVUUaw8Y/AcAUG1KAHijoki3vOMdb//FC/yxowCZKQAqaGJi1/Uppf25cwAAsDAlALzRqlWrf/MCAwEjHAXISgFQQSklW/8BAGpECQCvW2AgYISjANkoACpmfvBf2p47BwAAS6MEgNcNDAx8+CIDAR0FyEQBUCHj4zvaZRkHcucAAGB5lADwuksuaf/mRf7YUYAMFAAV0mqt2x+u/QMAqDUlAMwriuLOzZsvu/kiL3EUoMcUABUxNbVzS4Sn/wAA/UAJAPNWr17z0Yv8saMAPaYAqIjTp1sG/wEA9BElAEQURdp25ZWbf/UiL1kfEa1e5Wk6BUAFTE7uvj2ldHfuHAAAdJYSACIGBlZ9+CLXAhYR0e5lniZTAFTA3Jxr/wAA+pUSgKZbxLWAg2f+ocsUAJlNTu65N6W4IXcOAAC6RwlA07VaAx+4yC6AiPmBgKlXeZpKAZCZa/8AAJpBCUCTpRTtTZsuu9hAwCLcCtB1CoCM9u7d85Fw7R8AQGMoAWiyVquYWOBawDURsbpXeZpIAZDJ+PiOdlnG/tw5AADoLSUATbZ69ZoPL/CSdjgK0DUKgEyKYu2BlGxxAQBoIiUATVUU6ZYFdgEMxPzVgHSBAiCDqamdW1JKnv4DADSYEoCmWsQugA0R0epFlqZRAGQwN9c6kDsDAAD5KQFooqJIt7zjHW//xQVe1u5JmIZRAPTY1NTOLRFpX+4cAABUgxKAJlq1avVvLvCSwTP/0EEKgB47fbp1MHcGAACqRQlA06SUrrryys2/usDLNoaBgB2lAOihycndt6eU7s6dAwCA6lEC0DQDA6sWmgVgIGCHKQB6qCzjQO4MAABUlxKAJkkpXXXVVe/4wAIvMxCwgxQAPTI5ufv2iLQ9dw4AAKpNCUCTtFoDH96wYXDjAi9b6M9ZJAVAj3j6DwDAYikBaIqUoj009GMfXOBlayJidS/y9DsFQA94+g8AwFIpAWiKVmvgA4vYBeBawA5QAPSAp/8AACyHEoAmWOQugIGIuKQXefqZAqDLPP0HAGAllAA0wSJ3ARgIuEIKgC7z9B8AgJVSAtDvFrkLIMIugBVRAHSRp/8AAHSKEoB+t8hdAOti/jgAy6AA6CJP/wEA6CQlAP1sCbsAXAu4TAqALvH0HwCAblAC0M8WuQtg8Mw/LJECoEs8/QcAoFuUAPQruwC6SwHQBZ7+AwDQbUoA+tUidwG4FnAZFABd4Ok/AAC9oASgH53ZBfCri3jp+ohI3c7TTxQAHebpPwAAvaQEoB+1Wq3FHAMoImJDt7P0E9cndNjcXOxPOijgjHa7HVNTUzE6eluMjIzE8PCW875udvaFmJmZienpp+Pw4cNx8uTJHicFoM5efvnliIgYHDQXjf6QUrrqyis3/+pf//WLf7zAS9dHxMsRcboHsWrPUrWDJid3316W6XjuHPSnT3/687kjsASjo6Nx3333x9jYrmX9/rFjR+PRRx+J6enpDicDoJ+tX79eCUDfKMvyr06cmP2ZRbz0RxHxd93O0w8cAeigsox9uTMAeQ0PD8djjx2Oo0c/tezFf0TE2NiuOHr0U/HYY4djeHi4gwkB6GeOA9BPzu4CWMRLByNidbfz9AMFQIdMTe3cEpH25c4B5DM2NhZPPz29ooX/W99z15n3HOvYewLQ35QA9JOBgVUfXuRL3QiwCAqADjl9urU/dwYgn6mpqXjsscej3R7q+Hu320Px2GOPx9TUVMffG4D+pASgX6SUrnrHO97+i4t4qV0Ai6AA6IDx8R1tT/+huUZGRuKhhx7u+uc89NDDMTIy0vXPAaA/KAHoFwMDqxdzI0BERLurQfqAAqADWq11+1OKzj/2AypveHg4jh491pUn/2/Wbg/F0aPHzAQAYNGUAPSDoki3bN582c2LeOlARKztdp46UwB0xr7cAYA8HnvscE8W/2fNHwc43LPPA6D+lAD0g1WrBhczDDDCLICLUgCs0OTknnsjYmvuHEDvPfDAgzEycl3PP3dk5Lp44IEHe/65ANSXEoC6a7WKiUsv3XjlIl5qF8BFKABWqCzjQO4MQO8NDw9nXYQ/8MCDjgIAsCRKAOpu/fq2GwFWSAGwApOTu28PT/+hke677/7cESqRAYB6UQJQZ0VR3Llhw+DGRbzULoALUACsgKf/0FxVuJKvChkAqB8lAHWVUrSHhn5ssTcCbIyI1M08daQAWKapqZ1bItL23DmA3hsbG+vp4L8LabeHYmxsLHcMAGpICUBdtVqtxQ4DLCJifTez1JECYJnm5loHcmcA8hgdvS13hNdUKQsA9aIEoI5SSlddeeXmxZYA68MugDdQACzD+PiOdkTalzsHkMfIyEjuCK+pUhYA6kcJQB21Wqs+sMiX2gXwJgqAZWi11u3PnQHIp0qL7iplAaCelADUTVGkbZs3X3bzIl9uF8A5FADLsy93ACCfKpz/P6tKWQCoLyUAdbN69eBihwEWEbGmm1nqRAGwRBMTu+8KV/8BANBnlADUSVEUd1566cYrF/nyS7oapkYUAEuUUtj+DwBAX1ICUCfr1m2YWORLByJibTez1IUCYAlc/QcAQL9TAlAXrdbAYocBRtgFEBEKgCU5fbrl6T8AAH1PCUAdpBTtJVwJaBdAKAAWzdV/AAA0iRKAOljClYARdgEoABZrYGDd3SmFcdsAADSGEoCqK4q07fLLL712kS9v/C4ABcAizc0Z/gcAQPMoAai6wcF1S9kFoADg4iYmdl2fUtyQOwcAAOSgBKDKiqK4c8OGwY2LfPlgRKzuZp4qUwAsQkrJ038AABpNCUBVpRTtoaEfW+wwwIgGzwJQACzA8D8AAJinBKCqWq3WB5fw8sGYnwfQOAqABRTFun25MwAAQFUoAaiilNJVmzdfdvMSfmV918JUmAJgASkZ/gcAAOdSAlBFq1YNLuUYwLqIaHUrS1UpAC5icnL37RGxNXcOAACoGiUAVdNqFRNLGAYY0cBdAAqAiyjL2Jc7AwAAVJUSgKpZ4jDAtRGRupWlihQAF2D4HwAALEwJQJUscRhgEQ3bBaAAuADD/wAAYHGUAFRFSumqyy+/9Nol/MraroWpIAXABRj+BwAAi6cEoCoGB9d9YAkvH4gGlQAKgPOYmNh1fRj+BwAAS6IEoAqKorhzib/SmGMACoDzSCl5+g8AAMugBCC3lKJ95ZWblzIMcFXM7wToewqA8yjLdHfuDAAAUFdKAHJrtVYtpQCIaMgugEa0HEsxObnn3rKModw5gPxGR0djdPS21/7/qnrppe9HRMT09NNn/u/0ef81APTSyy+/HBERg4ODmZPQREWRbrn00o1Xfve73//rRf7Kuoj4fkSUXYyVnQLgTebmyrtTatRVkEC8vtgfHR2NkZGRaLfr1wO+XlbcduYnD77hz88WAhERs7OzMTPzbExPT8fMzEyvIgLQMEoAclq3bsPEd7/7/f99Cb+yPiJ+0K08VWCle46pqZ1b5uYGTuTOAefz6U9/PneEvtJut2N0dDSmpu6J0dHRWi74O+XkyZfi2LFj8fDDD8Xs7GzuOAD0ofXr1ysB6LmyLP/qxInZn1nCr7waEX/brTxVYAbAOU6fHnD2H/rc8PBwPPLIo/HsszPx2GOPx9jYrkYv/iMi2u2hmJq6J5599rl47LHD0W63c0cCoM+YCUAOKaWrLr/80muX8Ct9fyWgAuAcKYXp/9CnxsbG4ujRY/Hss8/F1NQ9jV/0X8jY2K544YW/iqmpqdxRAOgzSgByGBxcu9RhgAqAJpic3H17RGzNnQPorKmpqXj66el47LHHzzkbz0IeeeS345FHHs0dA4A+owSg14qitdQCYDD6eFaeAuCMsox9uTMAnXN24f/II78dIyPX5Y5TS1NT98QDDzy48AsBYAmUAPRSStF+xzve/otL/LW+vRJQAXBGWSbn/6EPjIyMxNGjxyz8O+SBBx50HACAjlMC0Eut1qo7l/gra6JPB+YrACJiYmL3XSmFA8FQc/fdd18cPXrMVv8Oe+ihh2NkZCR3DAD6jBKAXimKYqkFQBHzJUDfUQBERErh6T/UWLvdjqefno6HHvoXhvt1Qbs9FI888qjbAQDoOCUAveAYwOsUAGH7P9TZ6OhoPPvsjO3+XTYycl3cd9/9uWMA0IeUAPTCMo4BrIo+HAbY+ALA9n+or/kt/5/y1L9H7rvvPrsAAOgKJQDd1moVExs2DG5c4q/13S6AxhcAEab/Qx1NTU3FQw/9i9wxGqXdHnIrAABdowSg29rttzV+GGCjC4Dx8R3tlGz/h7qZmpqKRx757dwxGsmNAAB0kxKAbmq1Bho/DLDRBcDAwDqLf6gZi/+82u0hNwIA0FVKALqlKIo7l3EM4JKuhMmk0QXA3FypAIAaGRsbs/ivgLGxXbkjANDnlAB0yzKOAQxEHw0DbGwBYPs/1Mvw8HA88sijuWMQ8zcvAEC3KQHohmUcA4joo2GAjS0AbP+HennsscOm/VfE8PBw7ggANIQSgE5b5jGAvhkG2NgCwPZ/qI8HHngwRkauyx2DM4aHt+SOAECDKAHotGUcA+ibYYCNLABs/4f6GB4edvUcADScEoBOarVWfWAZv7a240EyaGQBYPs/1MdDDz2cOwIAUAFKADqlKNK2Sy/deOUSf20wIlrdyNNLjSwAbP+HehgdHTVxHgB4jRKATlm3bsNyhgHWfhdAIwsA2/+hHmz9r6bZ2RdyRwCgwZQAdEJRtH51Gb+mAKibiYndd+XOACxsdHQ0Rkdvyx2D85idnc0dAYCGUwKwUss8BjAQEau7kadXGlcApBSe/kMNTE3dkzsCFzAzM5M7AgAoAVixtWvX37KcX+t4kB5qXAEQkbbnTgAsbGxsLHcELmB6+uncEQAgIpQArEyrNbCcOQC1vg6wUQXAxMSu6yNia+4cwMVNTU1Fuz2UOwYXMD09nTsCALxGCcBypVTcvIxfK6LGuwAaVQBEpH25EwALc/a/ug4ffixOnjyZOwYAvIESgOVIKdqbN1+2nBKgtrsAmlYAbM+dAFiY7f/VdfjwY7kjAMB5KQFYjlWrVi/3GEDqdJZeaEwBMDW1c0tKcUPuHMDFjY6O2v5fUdPTT9v+D0ClKQFYqmUeA4io6S6AxhQAZTmwPXcGYGG2/1fX/ffflzsCACxICcBSLPM6wIiI9R0P0wONKQDm5krX/0ENjI6O5o7AeTz44D+J2dnZ3DEAYFGUACzFMq8DXBURrU5n6bbGFADO/0M9jIyM5I7Amxw7djQeffTR3DEAYEmUACzWMq8DjIgY7GiQHmhEATA5ufv2lMKhYqi4kZER5/8rZmbmWVv/AagtJQCLsYI5AOs6GqQHGlEAzM2F7f9QA8PDw7kjcI5jx47GbbeNuvYPgFpTArCQFVwHWLtjAI0oAFJKCgCogZGR63JH4IwHH/wncc89U7ljAEBHKAFYyMDAquXMAYiIWNvRIF3W9wXA1NTOLRGxNXcOYGHtdjt3hMabnX0hbrvtVmf+Aeg7SgAupihav7jMX1UAVInr/6A+DADMZ3b2hbj//l+P664biZmZmdxxAKArlABcSFGkbRs2DG5cxq8OnPmnFmoTdLnm5sq7U0q5YwANNDPzbE/Pzw8PD8fw8JZFv3529oWYnp6OY8eOxrFjx7qYDACq4+WXX46IiMHB2g1wp8va7bfd+fd//+IfL+NXV0fEq53O0w19XwC4/g/qo65DAGdnX4hjx47FzMyzcezYsUoNzRsdHX3Lz2ZnZ2N2djZDGgCoBiUA51MUAzdHxHIKgHUR8cMOx+mKvi4AJiZ2Xe/6P6iPpTy9rorZ2Rdi166xyi6op6enc0cAgEpSAvBmRZGWOwjw7G0ApzsYpyv6fAZAsT1zAKCPnTz5Utx222hlF/8AwMWZCcC5UkpXXX75pdcu89dr0ST1eQFQbs+dAOhf999/X6W2+wMAS6cE4FyrV6+5eZm/uq6jQbqkrwuAlNLduTMA/ensuX8AoP6UAJxVFK07l/mrZ48BVFrfFgCTk7tvz50B6F8W/wDQX5QARKxoDkBEDY4B9G0BUJam/wPdMzv7Qu4IAECHKQGIiHjHO97+i8v81TUdDdIFfVsAOP8PdNPMzEzuCABAFygBaLUGlrsLwA6AfOwAAAAAlk4J0GxFUSx3DkBExOqOBemCviwAnP8HAABWQgnQXCmlqy69dOOVy/z1Sh8D6MsCwPl/AABgpZQAzbV27frlHgOwA6D3nP8HAABWTgnQTEUxcPMyf7XS1wH2aQFgBwAAANAZSoDmSSldu4Jfr+wugL4rAJz/BwAAOk0J0CxFkbatYA6AAqBX5ubSDbkzAP2v3W7njgAA9JgSoFnWrFm33F0AlR0E2HcFgPP/QC+MjFyXOwIAkIESoDlarYHlDgIsImKgk1k6pe8KgJTsAAC6b2RkJHcEACATJUAzpFSsZA5AJXcB9FUBMDW1c0tEbM2dA+h/o6OjuSMAABkpAfpfUaTl7gCIqOgcgL4qAMpyYHvuDEAztNtDMTU1lTsGAJCREqD/bd582XKvAxyMiNTJLJ3QVwXA3Fxp+z/QMw888KBhgADQcEqA/jYwsKqvdgH0VQEQkbbnTgA0x/Dwlnj66WnHAQCg4ZQA/asoWsvdARBRwTkAfVUApBR2AAA9NTy8JY4e/VQ88sijigAAaDAlQH9KKa1kEGDldgBU7kzCck1O7r69LNPx3DmgWz796c/njtB1L7wwG+32UO4YKzY9/XRMT0/35LNmZ1+I2dnZ8/x89rw/BwC6a/369TE4OJg7Bh30/e9/76e/+93v//Uyf/07EXG6k3lWopJ3Ey5HWdr+D3U3MzMTo6O35Y6xYqOjt1Xm73Hy5EsxMzMTMzMzrxUTJ0+ezB0LAPrWyy+/HBGhBOgja9euvyXi+3+8zF8fjIgfdjLPSvRRAVDekFLfbGgA6Ih2e+i1QuK+++6PiIiZmWfj2LFjPd2pAABNogToL0XRWskxAAVAN6SUnP8HWISRketiZOS6iHgwZmdfiGPHjsXhw4/FzMxM7mgA0DeUAP0jpaJv5gD0xRDA8fEd7YjYmjsHsDKeRvfe8PCWuO++++Ppp78QR48eM8gQADrIYMD+UBRpJVcBFlGhB+99UQAMDKz19B9ghUZHb4ujRz/lakMA6CAlQH+4/PJL+2IXQF8UAAYAQn+YmXk2dwRi/ojA0aOfirGxsdxRAKAvKAHqb9Wq1SudA1AJfVIAlHYAQB9wbV21PPbY4/HYY4ej3W7njgIAtacEqLcVDgK0A6CTDACE/mAIXfWMje2Kp5+ejpGRkdxRAKD2lAD1tcJBgJWZA1D7AsAAQOgvjgFUz/DwFgMCAaBDlAD1tMJBgBEV2QVQ+wLAAEDoL44BVFO7PRRHj34qpqamckcBgNpTAtTTCgcBVmIOQO0LAAMAob9MTz+dOwIX8cgjv60EAIAOUALUzwoHAdoB0Bnl1twJgM4xB6D6Hnnktx0HAIAOePnll+MHP/hB7hgsUkrFVSv49UrMAah9AVCWBgBCP5meno6TJ1/KHYMFPPbYYYMBAaAD/ut//a9KgJooitbNK3yLVR0JsgK1LwBSCgUA9Jnp6encEVhAuz0UjzzyqCsCAaADlAD1kFJayRGAiAocA6h1ATAxsev63BmAzjMHoB5GRq6Lhx56OHcMAOgLSoDqSynal1668coVvIUCYCWKovD0H/qQHQD1MTV1j6GAANAhSoDqW716zUrmAAxEROpUluWodQFQlrE1dwag82ZmZmJ29oXcMVikhx562FEAAOgQJUC1DQysumWFb5F1F0CtC4CIcnvuBEB3HD58OHcEFqndHnIUAAA6SAlQXSkVKzkCEBEx2JEgy1TrAsANANC/Dh9+LHcElmBq6h5XAwJABykBqqkDgwCzXgVY2wJgfHxHO6UYyp0D6I7Z2dk4duxo7hgswQMPPJg7AgD0FSVA9RRF2rbCt7ADYDkGBtZ6+g997tFHH8kdgSUYHb3NLgAA6DAlQPVcfvmltd0FUNsCYG7O9n/od9PT064ErJlHHnk0dwQA6DtKgGoZGFi10jkA2QYB1rYAsP0fmuHhhx/KHYElGB7eYhcAAHSBEqA6iqK10mMAqzoSZBlqWwC4AQCawS6A+pmauid3BADoS0qAaiiKYqVHABQAS5e2Zg4A9IhdAPUyNXVPDA8P544BAH1JCVAFaeMK30ABsAxbcwcAemN6etqNADUzNjaWOwIA9C0lQF5FkW7pwNtkmQNQywJgcnL37bkzAL11//33xcmTL+WOwSLdd9/9uSMAQF9TAuR16aUbVzoIMMtNALUsAObmDACEpjl58mQ8+qgJ83UxPLwlRkZGcscAgL6mBMhn9eo1V63wLbIcA6hlAZCSKwChiR5++CEDAWvEMEAA6D4lQB4DA6tqOQiwlgVAWZYKAGgoRwHqwxwAAOgNJUAW7RX+vgJgsVJyBACaanZ2NnbtGlMC1MDw8Ba3AQBAjygBeqsoWjd34G16PgiwlgVARNqeOwGQz8zMjBKgJkZHR3NHAIDGUAL01EqvAozIMAiwdgXA1NTOLbkzAPkpAephbGxX7ggA0ChKgN4oirStA2+jAFhIWba25s4AVMPMzExcd92IwYAV5iYAAOg9JUBv1PEqwNoVAHNzbgAAXnfy5MnYtWssHn74odxROI/hYZu2ACAHJUD3deAqwMGOBFmC2hUABgAC5/Pwww/FbbfdGjMzz+aOAgBQCUqA7urAVYAREa0OvMei1a4AcAUgcCEzMzNx222j8eCD/yRmZ1/IHYcz2u2V3pIDACyXEqCrOvE/cnp6DKB2BYAdAMBCHn300bjtttF4+OGHDAmsAHMAACAvJUB3FEXRiR0AqzrwHotWuwKgLM0AABZ28uTJePjhh+K660YUAQBA4ykBuiF14ipABcDF2AEALMW5RcCuXTvj8OHHckcCAMhCCdBZRZFu6cDbmAFwIZOTu2/PnQGop5MnT8b09HTcf/99sWXLVfHwww+5PhAAaBwlQOX0dAdAz+8dBMjt7K6AiIjh4eEYGRmJsbFdMTIyEiMj12VO138MAQSAajlbAlxyySW5o9Te5s2X3fzii9/5Dyt8m4GIeLUTeRbzQbVRlml77gxAf5mdnY3Z2dk4duzYaz8bHR2N4eHhGB7ecub/Dvcky+jobT35nF4bGbnuDf/+AgD5KQEqpRUKAIA8pqenc0eIiPkn5yMjIzE8PBxTU/f0bUEAAOShBFi5gYFVt0TESncArIqIH3UgzoJqNQMgotyeOwFAr5ydW3D48OHYlLJD+wAAIABJREFUtWssbrvt1jh27GjuWABAHzEToBJ6NgegZgUAQHPNzMy40hAA6DglwPIVRXFtB94mdeA9FqVWBUBZphtyZwDIaWZmJh599NHcMZbEEEAAqD4lwHKljR14k8EOvMei1KoASCmGcmcAyO3RRx+p1S6AkZGR3BEAgEVQAixdSnFVh96q1aH3uajaFAATE7uuz50BoApOnjxpqj4A0BVKgKVJKSkAuqEokqf/AGfMzs7mjgAA9CklwNJs2DDYiWMAPbmhrzYFwNyc7f8AZ01PP507AgDQx5QAi3fJJe1ODALsydq8NgVASgYAAtSRIYAAUE9KgJ5a3YsPqU0BAEA9jYxclzsCALBMSoCFDQyssgOg88rtuRMAAAA0jRJgQZ3Y7riqA++xoBoVAAAAAOSgBLiwlFInhgBGRKQOvc8F1agASFszBwAAAGgsJcD5pVR04ghARA92AdSoAIituQMAAAA0mRKgq1rd/oA6FQAAAABkpgR4o5Tiqg69lQIgImJiYtf1uTMAVMno6G25IwAADaYEeF1KSQHQSUWRhnJnAKiS4eHh3BEWbXb2hdwRAIAuUAJ0nAIAgDdqt9sxNXVP7hiLNjs7mzsCANAlSoB5l1668coOvI0hgPPS1swBACrjvvvuzx0BAOA1SoCI1avXdOIYQNfX57UoAMrSDQAAERGjo6PxwAMP5o4BAPAGSoCOGejmm9eiAABouuHh4bjvvvvi6NFP5Y6yZNP/P3v3FmPXdd4J/jtVvIoy6UYjFwcy7QQJ+sGmEaQfBvJQGHsw0+2J1NNBj+DuUNOAIqSBll5GQl6kF1/6Yax+0LTyIj1IGMgIVFSREyCSKIVCCz10VBAHMw2PpSLttOPY4qXTA+Rinqo6derUOWeveThVEkXxUpez99r7nN8PIGxI1F7/IJTJ/d9rfWthIXcEAKAC01wCzMzMHB7Xo8b0nJsqtV0AqIujR4/ednBeXV9Sjx8/HidOPNSoM/8AwPTaLAHuvvvu3FEqNTMz+8WIeGsMjyp1EGBDCoD0lYhW7hBAA5w4cSKOH78vjh07FseOfSlLhsuXL+168N2osPjcmBLltbj4fu4IAECFprUEGBMFAMDtHDlyJB599LE4ceJELV6ajx79XC1y1EW73c4dAQComBJgxxwBALiVJ598ylC8mltcXMwdAQDIYJpKgJmZ2XvH9KhS39EbUQCk1Pp0ywkA4DpHjhyJM2feyLbNn61pt6/ZAQAAU2yaSoAmaMQtAK1W/GbuDEB9HDt2LN5/f9HLfwP4+g8ATPPtADuwv8yHN6IAANi0+eX/yJFP547CFigAAICIqSgBxnUNYKkUAEBjePlvHjcAAACbJrkEmJlpfXGMjyvtJoBGzAAAiIh4+eU52/4bZmFhIXeEOzp69GgcP348jh37Uhw7duzDv37s2DFl04RZWHjnw/9++fLlWFx8PxYWFuxUAaiQmQBbMhsRwzIeXPsC4Hd/95/8NynlTgHk9uSTT8Xx4/fljsE2XL58KS5fvpw7xi3df//98eijj/l1NUU++f/rhyJitFNlbu7lmJubM7QSoAJKgHwcAQBq7/jx4676a6C6fv0/fvx4vP/+Yrz88kkv/0RExLFjX4rvfOffxvvvL8ajjz6aOw7AVJjk4wBjsK+sBysAgNrz8t9M12+3roMjR47Ec889H2fOvBlHj34udxxq6MiRT8d3vvNv4513FuLo0aO54wBMvEkrAT7zmV+8N3eGO1EAALV2/PhxX2kb6o033sgd4UObAyRPnHgodxQa4NixL8U77yx8bCYEAOWYtBJgTEp7T1cAALX26KOP5Y7ADrzxxplanaV+7rnnDZBkW44c+XS8/PJcHDlyJHcUgImnBPiE0mb11b4ASKn1ldwZgHyOHz+eOwI78MYbZ3JH+NBzzz0f99//QO4YNNDRo5/buHpUCQBQNiVANWpfAADT6/7773cNWwO129dqs/3/xIkTtv2zK6MBgU/njgEwFZpeAszMzBwe06Nmx/ScT1AAALVly3YzvfHGG7XY/n/06FEvbozFiRMPxf333587BsBUaHIJMDMz+8UxPWp6jwAA08sArmZ6/vnnckeIiNHWfztIGJfRrydHAQCq0OQSoO4UAEBt+cN28ywsvBOLi4u5Y8SxY8fcHsFYHTny6Thx4kTuGABTQwlQzjEABQAAY/P009/JHSEi3B5BOfy6AqjWlJcA01oApK/kTgDAnS0svBMLCwu5Y0REOK9NKY4e/ZyjSQAVm/ISYOwaUAAA0ARPPfVk7ggRMbo60tl/yuJKSYDqNaUEaLVm7smd4U4UAEBtXb58OXcEtuj555+rxdn/iHD2n1IdP348dwSAqdSEEqDVan12jI/bN8ZnfUgBANSWAqAZLl++VJuz/xGj6/+gLH59AeTThBKg7hQAQG0tLLyTOwJb8Nhjj0a73c4d40Ne0CjT0aOfyx0BYKopAXZHAQDUVl22lHNrzz//XG0G/wEA02FKSoBpvQUAmFbtdjveeONM7hjcwsLCO7UZ/AcATJcpKAEUAMD0UQDU08LCO/HQQydyxwAAptgUlABjV/sCIKWWu5xgis3NzcXly5dyx+A6i4vvx0MPnajVuf/rGR5JmfzvEUC9KAG2p/YFQKsVv5k7A5DXY489mjsCGxYW3okHHri/ti//EQoAyuXXF0D9TGgJsLeMh9a+AABYWFhwFKAGNrf91/nlP8LtEZTL0EuAeqpDCTAz0/ryOB83xmeV+1CAcXvssUdtvc3o+eefq/2X/01e0CiTggmgvupQAtSdAgBohHa7vfH1+VruKFOl3b4WDz30u42b9j8393LuCEygy5cvKZgAak4JcHsKAKAxFhcX44EH7rcToCJvvHEmvvSlY/HGG2/kjrJtCgDKMDc3lzsCAFswQSXAvnE/UAEANMri4mLcd9/xWFx8P3eUiTWa8v+7jTjvfysLCwu2ajNW7fa1eP7553LHAGCLJqgEGCsFANA47XY7HnjgfiXAmF2+fCkee+xfx333HW/kV/8bNe3YAvX29NPfaWwhBjCtlACfpAAAGqndbsd99x33RW4MFhbeicce+9fxpS8dm6gtzouLi359MBaLi+/H888/nzsGADugBPi4Vu4Ad/Iv/sX/mHJngDr40z/9P3NHqK2jR4/Gk08+FSdOPJQ7SmMsLr4fb7zxRszNvTzx95q/885CHDv2pdwxaKh2+1rcd9/xif/3BGDS7du3L+6+++7S1/nZzy79yhgf146I1TE+TwEATaEAuLMjR47EiRMn4sSJh7zw3aDdvvbhufi5ubmp2sp85MiROHPmDb8m2LZ2+9rGcaPF3FEAGIMqSoAxFwDLETHW7QsKAGgIBcD2HDlyJI4dO/axv3b8+H1x/PjxXT336NGjcfTo53b1jDJdvnwpLl++HIuLi9Fut2Nx8f1YWFiYqhf+W3nuueftEmHLFhffjwceuN+/OwATpuwSoO4FwJ5xPgygLtrt9ifu6x7H/d1PPvlUPPnkU7t+zrg8/fR34umnv5M7RiM89tijERFKAO7Iyz/A5NqcCVDFcYA6MgQQgKnx2GOPxn33/ddx+fKl3FGooXb72oc3YXj5B5hc0zwYUAEAwFRZXFyM++47Ho899q8VAUTE6MX/6ae/E/fdd3yibsIA4NYaUgLMjvuBjgAAMHXa7XbMzc3F3NxcHD9+PO6//4E4fvy4QYFT5PLlSx8bjAnA9GnAcQAFAACM0+glcPfzIQCA5mlACTBWjgAAAAAwtRpyHGAsFAAAAABMtWkpARQAAAAATL1pKAEUAAAAABCTXwIoAAAAAGDDJJcACgAAAAC4zk5KgJTSlTHH2Dvm5ykAAAAA4EbbLQFSinEXAGN/X1cAAAAAwE1M2nGA2hcAKcUPcmcAAABgOk1SCVD7AqDVStdyZwDYtLDwTu4IH1O3PAAAk2hSSoDaFwAAdXL58uXcET6mbnkAACbVJJQACgCAbbh8+XJcvnwpd4yIiLh8+ZICAACgQk0vARQAANu0sLCQO0JE1CcHAMA0aXIJoAAA2Kbnn38ud4SIqE8OAIBp09QSQAEAsE2Li4vZh+8tLLwTi4uLWTMAAEyzJpYACgCAHXj66e9M9foAADSvBFAAAOzAwsJCzM29nGXtubmXnf8HAKiJJpUADSgAWudyJwC4maeeerLyGwEuX74UTz31ZKVrAgBwe+vr67G8vLyUO8edNKAAAKindrsdDz10ItrtaxWtd21jvXYl6wEAsHX9/vrF3BnuRAEAsAuLi4vxwAP3x+Li+yWv8/7GOgb/AQCwMwoAgF0quwTw8g8AwDgoAADGoN1uxwMP3B/PP//cWJ/7/PPPxQMP3G/bPwAAu6YAABiTdrsdTz31ZDzwwG/vejfA6Kv/b8dTTz3p5R8AoAFSSrX/Q1vtC4BWK53LnQFgOxYWFuK++47HAw/89ravCpybezkeeOC34777jrvqDwCgQYbDVPshgHtyBwCYVAsLC7GwsBCPPfZoHD9+PI4fv+82P/cdL/wAAJRKAQBQgc0yAAAAcqn9EQAAAABg9xQAAAAAsEvdbvf8mB9ZjPl59S8ATp58/Xu5MwAAAEDF+uN+YO0LAAAAAGD3FAAAAACwO+3cAbZCAQAAAAC7kFK6mDvDVjSiAEgpfpA7AwAAADRZIwqAVitdy50BAAAAmqwRBQAAAADUVUpp3FcAlqIRBUBKYQcAAAAA7EIjCoBWq2UGAAAAANNkfdwPbEQBAAAAAHVVFHEhd4atUAAAAADALhRFsZQ7w1Y0ogBIKTkCAAAAALvQiAJgZsYQQAAAAOqp2+26BQAAAADYkWLcD2xEAdBqDT/InQEAAAA+KV0p6cGDcT+wEQXA3Nybl3JnAAAAgBulFGUVAGPXiAIAAAAA2J3GFAAphZsAAAAAqJWUUiMGAEY0qABotZKbAAAAAJgWw3E/sDEFQER8kDsAAAAAXK8o4kJJj57mAqD1Qe4EAAAAcL2iKJZyZ9iqBhUAAAAAUC8pJQXAuLVa6VzuDAAAAHC9tbW1iyU8tijhmc0pAAAAAKBm2iU9t1/GQxtTAAwGXdcAAgAAUBsppTK+/pemMQXA6dNvl9WsAAAAwMRrTAGw4YPcAQAAACAiIqV0vqRHD8p4aMMKgPRB7gQAAABQMkMAww4AAAAAamIwKN7NnWE7GlYAtD7InQAAAABKNizjoY0qAFKKa7kzAAAAQEREt9stawaAAmBmJrkKEAAAAHagUQVAUSQ7AAAAAMgupVTm+X87AObnz7yXOwMAAACUTAGw4YPcAQAAAJhuKaWyzv+XpoEFQPogdwIAAAAoyaCsBzewALADAAAAgLwGg6KsGQClbP+PaGQB0PogdwIAAACmW0ppKXeG7WpcAZCSqwABAADIa21t7WJJj14v6bnNKwBmZsJVgAAAAGSUruROsBONKwBOnnz9e7kzAAAAML1SijILgKKsBzeuAIiISMkuAAAAAPJIKcra/h/hFoCPa7XMAQAAACCX5g0AjGhoARCuAgQAACCTEq8AjDAE8EauAgQAACCPJl4BGNHQAqDVSudyZwAAAGA6lXgFYL+k50ZEQwuAokiGAAIAAJBBqVcAlnYDQERDC4D5+TPv5c4AAADA9Cn5CsBhic9uZgEQEZFSuAkAAACASqWUzpf4eAXAzbRajgEAAABQraIo7ACoXutc7gQAAABMl6JwBKByrVZ8kDsDAAAA06Xb7ZZ1A0CEIYA3VxSFGQAAAABUqR0RSyU+f1Dis5tbALgJAAAAgCqllBr79T+iwQVAhJsAAAAAqE5KUWYB0C/x2RHR8AIgIn2QOwEAAADToSiGZRYApQ4AjGh4AdBqtewAAAAAoBJNvgEgouEFQEpJAQAAAEAlut3u+RIfrwC4PUcAAAAAqEIq8+t/hALg9twEAAAAQBVKvgEgwhDArUjncicAAABgspV8A0BERCr5+ZNQAMQHuQMAAAAw2YoiLpT4+F6Jz/5Q4wuAlNwEAAAAQLnW19fL3AFQ+tf/iAkoAGZm3AQAAABAufr9/tUyH1/isz/U+ALg5MnXv5c7AwAAAJMrpfRuyUuUfgNAxAQUABERKYVdAAAAAJSiggGACoCtarUcAwAAAKAcRTEsuwBYL/n5ETEhBYBBgAAAAJRlOExlFgCDEp/9MRNRABgECAAAQFnW1tbKLAAq2f4fMSEFgEGAAAAAlKGCAYCVbP+PmJACIMIgQAAAAMavggGARcnP/9DEFAAGAQIAADBuRVH6DgAzALbLIEAAAADGbX19vewdAP2Sn/+hiSkAIopzuRMAAAAwUdr9fv9qic8fREQq8fkfMzEFwPz8mfdyZwAAAGBypFTq9X8RFd4AEDFBBcBIOpc7AQAAAJMhpXS+5CUquwEgYuIKgNa53AkAAACYDINBUfYAQDsAdiolNwEAAAAwHt1ud2IGAEZMWAFQFN1zuTMAAAAwCdKFiFgqeZHKrgCMmLAC4PTpt9sR8UHuHAAAADRbUUTZ5/97JT//EyaqABgxCBAAAIDdKYrhRN0AEDGBBUCrZRAgAAAAu7O+Pih7AGCl5/8jJrIAGJzLnQEAAIAmS1f6/f7Vkhep9Px/xAQWAHNzb14KcwAAAADYoZSi7K//EXYAjIfrAAEAANipoijKPv8/iIhU8hqfMJEFQIQ5AAAAAOzMYFCUfQNA5dv/Iya2ACjO5U4AAABAI7XX1tbK3gFQ+fb/iAktAObnz7yXUlzLnQMAAIBmSan0r/8REesVrPEJE1kAjKRzuRMAAADQLEWRqhgAqAAYL3MAAAAA2J5er3+25CWybP+PmOgCwBwAAAAAtiNd6ff7V0teRAEwbvPzZ96LiA9y5wAAAKAZUooqtv8rAMphDgAAAABbMxwOJ3YAYMSEFwCtljkAAAAAbM36+qCKHQCDCta4qQkvAAbncmcAAACgCSo5/98r+fm3NdEFwNzcm5fCHAAAAADuoCii7On/ERm//kdMeAEQEZFS+pPcGQAAAKi3wWBYRQFgB0DJzuUOAAAAQL11u92JHgAYMQUFwPz866/mzgAAAEB9pVRUtf0/VbDOLU18ARDhGAAAAAC3VhSpiun/Wb/+R0xJARDhOkAAAABurtfrV7EDQAFQhdnZgR0AAAAA3EQl1/9FRPQrWOO2pqIAcB0gAAAAN1PR9X9FZL4CMGJKCoCRdC53AgAAAOplWs7/R0xRAZBSOAYAAADAx3Q6nbcqWKZXwRp3NDUFgOsAAQAAuF5F1/9F2AFQPdcBAgAAsKmi7f+1OP8fMWUFwMxMSwEAAABAREzP9X+bpqoAaLUG53JnAAAAoA7ShYqu/6vF+f+IKSsA5ubevJRS/CB3DgAAAPIqijhf0VJ2AGT0Uu4AAAAA5NXvD05VsExtzv9HTGEBMDs7MAcAAABgurXX1tYuVrBObb7+R0xhATA39+aliPggdw4AAADySClVdf1fbc7/R0xhARDhOkAAAIBpNhwqAKZIeil3AgAAALJodzqdtypYZxARwwrW2bKpLADm58+8F44BAAAATJ2Uiqmb/r9pKguAkXQudwIAAACqNRwWVW3/X6tonS2b2gIgpTAHAAAAYMp0Ot2qCgA7AOpifv71V1OKa7lzAAAAUI2UirMRsVTBUv2ISBWssy1TWwBERLRabgMAAACYFtO8/T9iygsAxwAAAACmR4Xb/xUAdTM///qr4TYAAACAKZAuRDXb/4sYXQFYO1NdAEREpOQYAAAAwKQbDotTFS1Vy6//EQqAiEgv5U4AAABAuXq9/lRv/49QAMT8/Jn3wjEAAACACZYu9Pv9qxUtVrvr/zZNfQEQ4RgAAADAJKtw+38vanj93yYFQEQ4BgAAADC5VlZWp/78f4QCICJGxwBSih/kzgEAAMB4pVScjWqm/0eMdgDUlgLgIy/lDgAAAMB4DYdFVcP/BhExrGitHVEAbJidHZgDAAAAMGE6nW5VBUCtv/5HKAA+NDf35qWIdC53DgAAAMaj4u3/qxWts2MKgOu0Wq2XcmcAAABgPCrc/l/E6AhArSkArjMYrDoGAAAAMBnaFW7/r/X0/00KgOucPv1225WAAAAAzZdSqnL7vwKgiVIKuwAAAAAabjhMVW7/X69orV1RANxgfv71VyPig9w5AAAA2LF2p9N5q6K11iIiVbTWrigAbiKlZBcAAABAQxVFOlXhco3Y/h+hALip2dnhs7kzAAAAsDP9/qDKAqAR2/8jFAA3NTf35qWIdC53DgAAALYrXVlbW7tY0WKN2f4foQC4pVar9VLuDAAAAGzPcFi8UOFyjdn+H6EAuKXBYPVPUopruXMAAACwdb1ev6rp/xEKgMlw+vTb7Yj0Uu4cAAAAbE1Kxdl+v3+1ouUatf0/QgFwW4YBAgAANMdwGPMVLteor/8RCoDbmpt781JK8YPcOQAAALiTdKXT6bxV4YIKgEkzMxN2AQAAANRchuF/jdr+H6EAuCPDAAEAAOpvZWX1VIXLNe7rf4QC4I5On3673WqlP8mdAwAAgJtLKc1HxFJFyxUR0a1orbFSAGzBzMzwW7kzAAAAcHPr64MXK1yukV//IxQAWzI39+aliHQudw4AAAA+LqX07tra2sUKl1QATLpWq/VS7gwAAAB83HA4rPLsfxERvQrXGysFwBadPPnadyPig9w5AAAA+FC70+merXC9xn79j1AAbNdLuQMAAAAwUhTpVFQ3/C8iolPhWmOnANiGmZnBS7kzAAAAMLK21nuhwuUGGz8aSwGwDRvDAF/KnQMAAGDapVSc7ff7VytcspFX/11PAbBNrZZjAAAAALn1+0WVX/8jFADT5+TJ17/nSkAAAICc0oVut3u+wgXXImJY4XqlUADsgCsBAQAA8hkMhi9WvGSjp/9vUgDsgCsBAQAAcklXOp3uqQoXLGICtv9HKAB246XcAQAAAKbNxtV/VZqIl/8IBcCOuRIQAACgcu3l5U7Vw/9WK16vNAqAHXIlIAAAQLU2vv4vVbjkYOPHRFAA7EJK6dncGQAAAKbF2lqv6q//nYrXK5UCYBfm58+850pAAACA8qWU5vv9/tWKl52Y8/8RCoBda7XiW7kzAAAATLr19UHVV/+tRkSqeM1SKQB26eTJ178XrgQEAAAoTUrp3bW1tYsVLztRX/8jFABjYRcAAABAefr94TNVLxkR6xWvWToFwBicPPnad8MuAAAAgBKkC91u93zFi07U8L9NCoAxSSncCAAAADBmg8Gw6rP/RUSsVbxmJRQAY1IUqy+lFNdy5wAAAJgc6Uqn0z1V8aJrMWHD/zYpAMbk9Om3262WXQAAAADjMhhUfvY/ImIlw5qVUACM0XC4+qxdAAAAAOOQ5et/LyKGFa9ZGQXAGNkFAAAAMB7DYfFChmUncvjfJgXAmM3MDF7KnQEAAKDh2isrq1V//R/EaAfAxFIAjNnc3JuXItJLuXMAAAA0VVEUL0bEUsXLTvTX/wgFQClmZobfyp0BAACgmdKV5eVOju3/3QxrVkoBUAK7AAAAAHZm4+x/1V//V2NCr/67ngKgJHYBAAAAbFuOs/8RE3z13/UUACWxCwAAAGB7Mp39n+ir/66nACiRXQAAAABb1s509n8qvv5HKABKZRcAAADA1mT6+j+IiPWK18xGAVAyuwAAAADuyNf/CigASmYXAAAAwO1l+vpfxBRc/Xc9BUAF7AIAAAC4pVxf/zsZ1sxKAVCBubk3L6WUns2dAwAAoG6Gw+EzkefrvwKAchRF91spxbXcOQAAAOojXVlZWX0xw8JrEZEyrJuVAqAip0+/3W61wi4AAACADYPB8JlMS0/V8L9NCoAKDYerz9oFAAAAEBGRrnQ63VMZFl6NiGGGdbNTAFTILgAAAICR9fXh45mWnsqv/xEKgMrZBQAAAEy7lNK73W73fIalezGlX/8jFACVswsAAACYdv2+s/85KAAyeOWV174dER/kzgEAAFC1zF//1zOsWxsKgExarfhW7gwAAABV63Z7zv5nogDI5OTJ174bkc7lzgEAAFCVlNJ8v9+/mmHpqf/6H6EAyMouAAAAYIq0u92es/8ZKQAyOnny9e+llP4kdw4AAICyFUXxoq//eSkAMpudzXb3JQAAQEXSleXlzguZFvf1f4MCILO5uTcvRaSXcucAAAAoy2AwfCYiljIs7ev/dRQANTAcdh9PKa7lzgEAADBuKaV3O53uqUzL+/p/HQVADZw+/Xa71Ypnc+cAAAAYt35/mGvwn6//N1AA1MQrr7z27Yj4IHcOAACAcUkpzXe73fOZlvf1/wYKgBpptdLDuTMAAACMSc5r/3z9vwkFQI2cPPn69yLSudw5AAAAdivjtX8Rvv7flAKgZmZmhg/nzgAAALA7Wa/98/X/FhQANTO6FjC+lTsHAADATmW89i8iop1p3dpTANTQcLj6bBgICAAANFK6kPHav15EDDOtXXsKgBrauBbwW7lzAAAAbNf6+vCbGZf39f82FAA1dfLka981EBAAAGiSoiieyXjt32r4+n9bCoAaSyk9njsDAADA1mQd/Bdh8v8dKQBqbH7+zHsR6aXcOQAAAO5kMEjfiHyD/5bD1/87UgDU3HDYfTyluJY7BwAAwK2klN7tdDpvZVq+iIhOprUbRQFQc6dPv90O1wICAAA11u32ch5fXo6IlHH9xlAANMD8/Gt/aCAgAABQR0VRPNPv969mWn4Qo+F/bIECoCFmZoYPOwoAAADUi8F/TaIAaIi5uTcvtVrxbO4cAAAAm9bXh49HvsF/vYjoZlq7kRQADfLKK699OyI+yJ0DAAAgpeJst9s9nzGCr//bpABomFYrPZw7AwAAMPXa3e76NzKuvxoR6xnXbyQFQMOcPPn691JKjgIAAADZDIfDnIP/Inz93xEFQAMVRfdbBgICAAB5pAsrK6svZgywHBHDjOs3lgKggU6ffrsd4SgAAABQvV5v8ETAdpaxAAAgAElEQVTG5YuI6GRcv9EUAA01P//6qxHpXO4cAADA9CiK4pm1tbWLGSMsR0TKuH6jKQAabGZm+LCjAAAAQDXSheXlzjMZA/RiNPyPHVIANNjc3JuXIuJbuXMAAACTL/PW/wiD/3ZNAdBw8/Ov/aGjAAAAQJmKIr2Qeeu/a//GQAEwAVJKjzsKAAAAlCNdWV5eybn1vwhf/8dCATAB5ufPvBeOAgAAACVYXx8+HhFLGSN0wrV/Y6EAmBCOAgAAAONWFOmFbrd7PmOEQfj6PzYKgAniVgAAAGB8sm/9j4hoZ15/oigAJohbAQAAgHHp9QaPRN6t/2th8N9YKQAmjKMAAADAbhVF8Uzmqf9F5C0fJpICYAI5CgAAAOxcurC83Mm99d/gvxIoACbQ3Nybl2Zm4vHcOQAAgOZZXe09kjmCwX8lUQBMqJMnX/tuSulPcucAAACaoyiKZ/r9/tXMMQz+K4kCYIIVRffhiPggcwwAAKARarH13+C/EikAJtjp02+3W630cO4cAABA7bVrsPXf4L+SKQAm3MmTr38vXA0IAADcxmAw+GYNtv4b/FcyBcAUeOWV176dUvwgdw4AAKB+UirOdjrdU5lj9MLgv9IpAKbE7Ozgd3JnAAAA6iZdWVrq1OEGMVv/K6AAmBJzc29eSsnVgAAAwEfW14ePR/6X7+UYXf1HyRQAU2R+/rU/jEjncucAAADyK4rimW63ez5zjEGMzv5TAQXAlBkOu7+TUlzLnQMAAMipFlf+RUS0IyLlDjEtFABT5vTpt9sRrgYEAIApVocr/yIi1iJiPXeIaaIAmELz86+/mlJ6NncOAACgeoNB8XgNrvwrIuxMrpoCYErNz7/+hKsBAQBguhRFeqHT6byVO0eMXv5t/a+YAmCKzc4OzAMAAICpka4sL6/U4dz/WkT0coeYRgqAKTY39+Yl8wAAAGA61OTKP1v/M1IATDnzAAAAYPLV5Mq/CFv/s1IAEEXR/ZZ5AAAAMJlSSvM1ufLP1v/MFABsXA1YPGweAAAATJp0YWlp5Zu5U4St/7WgACAiIubnz7w3MxOP584BAACMTbvXGzwR+c/9R9j6XwsKAD508uRr3zUPAAAAJsNgMPjm2traxdw5wtb/2lAA8DHz868/YR4AAAA0W0ppvtPpnsqdIyIGYet/bSgA+ITZ2cHvmAcAAABNVZtz/xER7bD1vzYUAHzC3NyblyLSw7lzAAAA21anc/+diFjPHYKPKAC4qfn51181DwAAAJqlRuf+BxGxnDsEH6cA4Jbm519/IiKdy50DAAC4s6JIL9Tk3H+Erf+1pADgtobDrnkAAABQe+nC8nJtzv0vh63/taQA4LZOn367HVF8JXcOAADgltqrq71HcofY0I+IldwhuDkFAHc0P3/mvZTi8dw5AACAT1pfHzzS7/ev5s4REUVE/Dx3CG5NAcCWzM+/9ocR6aXcOQAAgI8Mh8NvdLvd87lzbFiKiGHuENyaAoAte+WV138vpfhB7hwAAEBESml+ZWX1xdw5NqxGRDd3CG5PAcC2FMXqVwwFBACA3NKFpaWVJ3Kn2DCI0dd/ak4BwLYYCggAANnVaehfxOjcvyv/GkABwLbNz595r9WKh3PnAACAaVSjoX8REe0Y7QCgARQA7MjJk69911BAAACoVs2G/q3F6Ow/DaEAYMcMBQQAgOrUbOhfEWE2WNMoANgVQwEBAKAKtRr6F+HcfyMpANiVzaGASgAAAChLutJurzyYO8V1liNiPXcItk8BwK7Nz595b2YmHs+dAwAAJlC71xs8EvW5Zq8XESu5Q7AzCgDG4uTJ176bkhIAAADGaX198Mja2trF3Dk2FDHa+k9DKQAYm/n51/7QzQAAADAeg8Hg8RpN/I9w7r/xFACM1SuvvP57Eelc7hwAANBkKaX5Tqd7KneO67TDuf/GUwAwdsNh93dcDwgAADtVu4n/qxs/aDgFAGN3+vTbbdcDAgDATqQLNZv434/6DCBklxQAlGLzesDcOQAAoEHaq6u9Ok383xz659z/hFAAUJr5+TPvtVrxcO4cAADQAO1er/9gv9+/mjvIda5FxDB3CMZHAUCpXA8IAAB3NhgMvlmj6/4iIjoR0csdgvFSAFA61wMCAMCtDQaDx2s28b8X9TmGwBgpAKjExvWAL+XOAQAAdVIU6YWavfwPYnTunwmkAKAyr7zy+u+5HhAAAEZSSvPLyyvfzJ3jOob+TTgFAJXauB5QCQAAwFRLKb27tLTyRO4cN7gWox0ATCgFAJU6ffrt9kYJcC13FgAAyCNdWFpaeSR3ihssh6F/E08BQOVOn367HVEoAQAAmELpSru98mDUa8jeWkSs5A5B+RQAZDE/f+Y9JQAAAFOm3esNHol6vfz3I/yZfFooAMhmVAKkh3PnAACAKgwGxeNra2sXc+e4ThGjl39D/6aEAoCs5udff7XViodz5wAAgDINBoPHO53OW7lz3ODnYejfVFEAkN3Jk699VwkAAMCkGr38d0/lznGDaxGxnjsE1ZrNHQAiIi5c+E/vffGL/yAi4iuZo9TWT37yQe4IAABsU01f/lfD0L+pZAcAtfHKK699OyK9lDsHAACMQ1EUz9Tw5b8XEe3cIchDAUCtvPLK67+nBAAAoOlSSvPLy51ncue4QRGjc/9MKQUAtaMEAACgyVJK80tLK0/kznGDIiL+Nkz8n2oKAGppOOw+nlL8IHcOAADYjpq+/EdELIWJ/1NPAUAtnT79drsoVr+iBAAAoDnShaWllW/mTnET7Yjo5g5BfgoAaksJAABAc6QL7fbKgzH60l4nqxs/QAFAvSkBAACov9q+/Jv4z8coAKg9JQAAAPVV25f/fpj4zw0UADSCEgAAgBpqr672Hon6vfyb+M9NKQBoDCUAAAD1ka70ev0H+/3+1dxJbuDln1tSANAop0+/3Z6dHfxOSnEtdxYAAKZVutJur/z3a2trF3MnuYmfh+v+uAUFAI0zN/fmpYjiK0oAAAAyaPd6gzpu+4+IuBYR67lDUF8KABppfv7Me0oAAAAq1u71+g/W9Mv/ckR0c4eg3hQANJYSAACACtX55X81IlZyh6D+FAA0mhIAAIAK1Pnlvx/1PI5ADSkAaDwlAAAAJar7y7+J/2yZAoCJMD9/5r3Z2cFvKgEAABij9urqWl2n/Q9iNPTPyz9bpgBgYrgdAACA8UkXer3+g/1+/2ruJDdRhOv+2AEFABPFTgAAAMag3esNnqjpl/8iRtv+vfyzbQoAJs51OwF+kDsLAABNk66028v/VU1f/iN8+WcXFABMpPn5M+8VxepXIuKDzFEAAGiMdGF1tfc/RX2n6l+LiPXcIWguBQAT6/Tpt9vD4epv2gkAAMCdpQvt9kpdz/xHjF7+u7lD0GwKACba6dNvt4ti1XEAAABuY/TyH/X98r8cXv4ZAwUAE08JAADArdX+5X81IlZyh2AyKACYCpslQET6Xu4sAADURSNe/tu5QzA5FABMjdOn326/8srrX1UCAACQUpqv+cv/Wnj5Z8wUAEyb9Morr3+1KIYv5w4CAEAeKRVnl5ZWnoj6vvz3YzT0D8ZKAcA0SqdOvfEvlQAAANMnpTS/tNR5JHeO2+hHxN9GRModhMmjAGBapVOn3viX/f7g6dxBAACoRlGkFza+/NeVl39KNZs7AOT0ox/9xX/4jd/41bU9e2b/u9xZ7uQnP/kgdwQAgMYaDoffWFnp/G+5c9yGl39KpwBg6v35n//k/K/+6mf/Zt++vf9D7iy3owAAANiZwWDweKfT/aPcOW7Dyz+VUABARPrxj3/6/V/91c/+zd69e7/casWB3IFuRgEAALB9Gy//p3LnuI1BePmnIgoAGCl+/OOffv/v//0j/9fdd9/9O3UsARQAAADb0u71+v+k2107lzvIbRQR8Xcb/wmlMwQQPjL4sz/7v//sv/yX/++fpeTOVQCABmv3ev0H19bWLuYOchtFjL78D3IHYXrYAQAfV1y69J+vdLud05/5zC99tdVq/WLuQJvsAAAA2Ip0od1e+UeDweBq7iS34eWfLOwAgE8a/PSnV3/2H//jD/5ZURQXcocBAGBrUkrvttsrD0bEUu4st+Hln2wUAHBzg5/+9OrPTp0689/2+/353GEAALiTdGFpqfYv//2I+Jvw8k8mCgC4tUFE/PyP//hP/xclAABAfaWU5tvtlX+UO8cdDCLiWkQMcwdhepkBALdXRETvRz/6yX/4/Ofv+at9+/Z9LVcQMwAAAD6pKNILy8srT+bOcQf9GG37N+2frBQAcGdFRPR+/OOf/fTzn7/naq4SQAEAAPAx7cGgeHRlpfNi7iB3sPnyn3IHAQUAbE2KiLUf//hnf/HpTx/+95/61N1fbbVaR6oMoAAAAPhQu9frP9jtds/nDnIHXv6pFQUAbF2KiO7ly3+1tLq68n/8yq/88leqvCZQAQAAEBGRLqyu9h5cX1//y9xJ7sDLP7WjAIDt6167thyrqytnfvmXf/HXZ2Zmfr2KRRUAAADpQru98mBRFH+dO8kdePmnlhQAsDPda9eW44c//Isz/+Af/No9s7OzXyx7QQUAADDNUkrzS0sr/3NE9HJnuYO1iPh5ePmnhhQAsHPdiNj/ox/95N//2q8dbe/du/erZS6mAAAAplVDJv1HRKzG6Ko/qCUFAOzOakTM/qf/9NPFT3/68NlPfepT/7TVigNlLKQAAACmUFMm/UeM/lzYzh0CbmcmdwCYAEsR0VtY+H8u/uf//F8eTCldyR0IAGACtHu9/oOdTuet3EG2wMs/jWAHAIxHNyJmL1/+q2urqyunyhgOaAcAADA9GjPpP2L04r+SOwRshQIAxqcXEbPXri0XP/zhX7w67uGACgAAYBpsDvsrimIpd5YtuBajD0HQCI4AwHi1I2I5IuKP//hPn1hZ6TyeOQ8AQGMURfHM0tLKE7lzbEERXv5pIDsAYPzWI2IYEQd+/OOfXRwNB7z7q61W68huHmoHAAAwwdrr64OHOp3VU7mDbEEREX8boz/zQaMoAKAcg9goAS5f/qu/Xl1dOfUrv/LLX2m1Wr+40wcqAACAyZSu9HqDh9bW1r6fO8kWbL78D3IHgZ1QAEB5BjFqhg9cu7a8vrq68uov/MLf379nz55/uJOHKQAAgEmzcd7/kcFgcDV3li3oR8TfxKgEgEZSAEC5hjEaDnjw2rXl9T//87889/nP33Nl3759X9vugxQAAMAkKYr0wvLyypMx+rNS3fVj9OU/5Q4Cu6EAgPIVMfqNbX9EzGzOBbj77kO/tZ0jAQoAAGBCtAeD4tGVlc6LuYNs0WqMBv55+afxFABQjSJGU2L3R8TsxlyAVz/zmV/6rZmZmc9u5QEKAACg+dKF1dXeg2tra/9v7iRbtBqjW55gIigAoFoflgDXri33fvjDvzj1G7/x+cNbmQugAAAAmiyl4uzSUueRoij+OneWLVre+AETQwEA1VuN0b97eyMi/vzP//LcPfd85sL+/fu/2mrFgVv9QwoAAKCphsPhN5aXV78ZzTjvX0TEz2P04QYmigIA8tj8zW9/RMRPfvLBX/69v3f43O3mAigAAIDmSVfW14ePrK52X8udZIs2r/nr5w4CZVAAQD7rMbol4EBExOZcgF/6pV/4hdnZ2S/e+JMVAABAk6SU3l1aWnlwMBj8Ze4sW9SP0Zf/Qe4gUBYFAOQ1iFEJsC8iWteuLfd+9KOfvHWzqwIVAABAUxRF8czycueJaMaW/4hRzr+L0Q4AmFgKAMhvENddExgRcbOrAhUAAED9jbb8dzqrp3In2YbNa/5g4ikAoB4+dk1gxCePBCgAAIA6Sym92+32Hun1ej/MnWUbTPpnqigAoF66EbFn40dsHgn4tV872r506epX80YDALi5zS3/RVEs5c6yRSb9M5VauQMAN3UkIu66/i8cOHDgC/v37/l3Ea1PDAgEAMgjXVlfHz7e7XbP506yDZuT/g37Y+rYAQD11IvrbgiIiBgMBn/d662/um/fvv2tVusf5osGANDIKf8Ro0n/fxejP2fB1FEAQH0NImItIg7GR7t1euvr6+f27t3TnpmZ+a24riAAAKhIezgc/q/Ly50nozlT/iM+GvZn0j9TSwEA9VbE6DfWfXHdv6/r6/3vt1oz5/bsmfmtiNEtAQAA5UtXer3BQ6ur3bdyJ9kmw/4gFADQBJs3BMxExN7Nv7hxJOCP9u3bd9iRAACgbEWRXlhaWnl0MBhczZ1lG4oYbfk37A/CEEBomsMRcejGv3jw4MF79+2bfTai9dkMmQCAidbIQX8Ro+OUPw/D/uBDCgBonv0R8ekY7Qi43uHDhw8922rNfC1DJgBgAqWU3u12e4/3+/0mffWPGM1RuhYRKXcQqBNHAKB5hjH6TW1/fLwE6PV6/Vf37Jm9MjMzc28YEAgA7NyHg/6KoljKHWabliOiaZmhEnYAQHO1IuLvxagI+Ji9e/fec/Dg/mdbrdaXq48FADRburC62nukgV/9ixi9+DvvD7dgBwA02+ZvcB8rAYqiWOr11k/t27c3lAAAwFYVRfHM0lLnsQZ+9e/H6Lz/eu4gUGd2AMBkuNVcgDhw4MAX9u/f8+8iWl+sPhYA0AzpQq83eGJtbe1i7iQ74Lw/bJEdADAZhhHRi4h9ccO/1xvXBb66b9++/a4LBAButHG93xMNu95vk/P+sA12AMBkacXoqsC7bvY37QYAAK7THgyKxzudzlu5g+xAEbb8w7bZAQCTpxejHQH74oaSb2M3wB+ZDQAA0y2lNL+0tPJQv9//Ye4sO9CLiL+N0Z93gG2wAwAm154Y3RKw52Z/8+DBg/fu2zf7bETrs9XGAgDyafRZ/4iITtjyDztmBwBMriJGtwTsiZuUAIPB4Gqvt/6i3QAAMB02J/wPBoO/zp1lBza3/K/mDgJNpgCAybcWo9sB9t3sb66v98+3WjNnZ2dnfr3VshsAACZPutDrDR5aXe2+mjvJDg0i4u9idNUfsAsKAJgOvRj9prk/bnL0Z2M2wKm9e/e0Z2ZmfisiDlQdEAAYv4Z/9Y8Yfcj4uxjtAAB2SQEA02MYo99EP3FV4Kb19f73W62Zc7OzrV9stVq/Xmk6AGBsUkrvrq8PHmnwV/+IiHaMrvkDxsQQQJhOd0XEkdv9hEOHDn59z549377TzwMAaqU9HA6fWVlZfTF3kF3ox+i8vyn/MGYKAJhet70lYMPhw4fv/nar1frnFWUCAHYopfRut9t7vN/vX82dZRdM+YcSKQBgurUi4tNxhzP/G1cGfjui9cVqYgEAW5eurK8PH+92u+dzJ9mFIiKuxWhuEVASMwCAtRj9pnvLEmDjysBX9+3b22u1Wl+43c8FAKpTFOmFpaWVRweDwV/mzrIL/TDlHyphBwCwaStHAmLv3r33HDy4/9lWq/XlamIBADfaGPL3zbW1tYu5s+ySLf9QIQUAcL1WRHwqIg7d6SeOjgXs+d/DkEAAqFJ7MBh8s9PpnsodZJcGMZryv547CEwTRwCAG/Vi9JvxgbhNSbhxLOCPHAsAgGqklOaXllYe6vcH38+dZZdWw5R/yEIBANzMMEa/Oe+N2x8J6K2v98+3WjPnZmdnfr3Van22mngAME3ShV5v8FCns/pH0ewheUWMvvqv5A4C08oRAOBO7o7RkYCZO/1ExwIAYKzag0HxeKfTeSt3kDHoxeis/yB3EJhmdgAAd7Ieo9+098Ud/jfDsQAAGI+N6f6P9Pv9H+bOMgbLMfryX+QOAtPODgBgq1ox2gnwqS3+/MOHDx96ttWa+VqJmQBgoqRUnO1217/R7/ev5s4yBv0YffU36A9qQgEAbNeWrgvcdPDgwXv37p39A9cGAsCtpZTe7feHz3S73fO5s4yJ6/2ghhQAwE5s+brATYcOHfz6nj2zfxBhUCAAfCRdGQyGz0zAtX6bXO8HNaYAAHZjX4wG/m1pN0BExN133/X7s7Oz/6a8SADQCO2iKF5cXu68EJPzpbwTo/P+KXcQ4OYMAQR2YxgR3RiVifu28g+sr/e/XxRpfs+e2cOtVuuLpaYDgBpKKc0vLa08tL7ePxfNvtZv0yAifh6jK4SBGrMDABiXfTGaDXDH6wI37d27956DB/c/az4AANNgwgb8bVqN0Q4GX/2hARQAwDhtezZAhEGBAEy2CRzwF+GsPzSSAgAow7ZuCth06NChf7xnT+vfGBQIwGRIVwaD9I1Op/NW7iRjZsI/NJQCACjLjnYDRLgxAICmm7jJ/pt89YeGUwAAZdsTEYcjYv92/8FPferQH8zMzPx+jG4aAIC6aw+Hw2dWVlZfzB1kzIoYffVfyR0E2B0FAFCVu2JnL/KHP/WpQ/9KEQBAjU3ilX6b+jGa8D/MHQTYPQUAUKXZGL3Eb3s3QCgCAKifSX7xLyJiOVztBxNFAQDkcDBGxwK2fGXgdRQBAGSWrhRFOjWhL/4REWsx+r/LV3+YMAoAIJcdDwnccPjw4bu/3Wq1vhaKAACqsfnF/5ncQUpiyB9MOAUAkNueiPh0ROzd4T9vRwAAZZvkrf6blsOQP5h4CgCgLu6K0Y6AnRwLiIg4fPfdd319dnb2D0IRAMBYpCvDYfHCysrqqZjcF/9ejL762+4PU0ABANRJK0azAe7axTM2dgS0vh7R+uyYcgEwVdKVwWD4TKfTPZU7SYkGMSo1ermDANVRAAB1tC9GRcBOjwVERMShQwe/vmfP7O9HtL44nlgATLZ0YTAYvjjhL/4Ro+3+nYhIuYMA1VIAAHV2V4yGBO7ZzUMUAQDcTkrp3X5/+Ey32z2fO0vJTPeHKacAAOquFaMS4FO7fdDBgwfv3bt35l+1WjNf230sAJoupTS/vj54cW1t7WLuLCXrx+jF33R/mHIKAKApZmM03G//bh+0d+/eew4c2L8xJ8DAQIBpk1Ka73Z7z/T7/au5s5SsiNF2/9XcQYB6UAAATbM/RrsBdjUfYMPGzQEz/8rAQIBJNxWD/a7XidHLv3P+wIcUAEBT7fbawI85dOjQP96zp/UH5gQATJaU0rvD4fDUFL34u9YPuCUFANBkm/MBDsWYioADBw58Yd++Pb/farX++TieB0AW7ZTS2X5/eGoKBvtt6kXESjjnD9yGAgCYBLMRcXeMdgWMxWhOwL5/PpoT4HgAQDOkK8Nh8cLKyuqpGA29mwaDGL34d3MHAepPAQBMkrENCrye4wEA9TaF2/wjDPgDdkABAEyifTHaETDWIsDtAQC10i6K4sW1tfX5KZjmf70iRgP+OmHAH7BNCgBgku2PiMMRsWfcD7777rt+f3Z25ut2BQBUK6Xi7HAY851O563cWTJYjdHRBi/+wI4oAIBpsD9GgwLHuiMg4mNDA78WdgUAlCRdKYp0agq/9kd89MW/Gyb7A7ukAACmycEYHQ0Y+46AiIhDhw5+fXZ25mut1szXyng+wLRJqTi7vj58Zm1t7WLuLJmsxmjAnxd/YCwUAMA0KrUIcIMAwG6kC4PB8MVOp3s2pmeS/428+AOlUAAA06oVo2MBhyJipqxFDh48eO/evbNfd0QA4Lbaoy3+vRemcIv/9XoxevFfzx0EmEwKAICSdwRsOHzo0MGvzc7Ofr3Van25xHUAGiOlND8cprNTOtDveqsxOuc/yB0EmGwKAICPVFEExN69e+/Zt2/Pl5UBwDQaTfEvzk75Fv9NtvoDlVIAAHzSwRgdDdhb9kLmBQDTwbn+G3jxB7JQAADcWiU7AjYpA4DJkq4URZzt9wenpniK/41WY3SdnzP+QBYKAIA7q7QIiIg4cODAF/bunf2aMgBoFi/9t+CLP1ALCgCArdsXozLgrioXVQYA9ZYuFEV6q98fnvXS/zFFjAb7dcOLP1ATCgCA7ZuN0Y6ASouAiI+OCbRarXsNEATySReGw+JUr9c/O+XX9t3MIEZf+7u5gwDcSAEAsHOzMRoWeDAiZqpefO/evffs37/3azMzrS+3WjP3RsSRqjMA08RL/x148QdqTwEAsHutGBUBhyJDEbDh8KFDh+6dmWl9eXRUQBkA7Fo7pXR2OExn19fXL3rpv6VejF76vfgDtacAABiv/TEqAvbnDHHd3IB/HNH6Ys4sQJOkCynFxeEwne10Om/lTlNzBvsBjaMAACjHvhjNCchaBGw6dOjg12dnZ+9tteLLBgkC10spvVsUxVlb+7ekiNGX/k548QcaSAEAUK46HA/4mIMHD967Z8/Mlw0ShGmVrqQU7/rKvy3O9wMTQQEAUI1WRByI0cDAWuwK2GR3AEy+lIqzRZHeHQyK867q25bViFiL0Tl/gMZTAABUb1+MioADUZNdAde5bphg3Gt+ADRTSundlOLiYDA82+12L0bEUu5MDTKI0Qu/bf7AxFEAAOTTilERcCgi9mTOciuH7777rq+7ahBqrZ1SuphSOj8YFO964d+xzZd+X/uBiaUAAKiHPRFxV4zKgNrau3fvPfv27fmyIwOQz+bX/aIYXlxfH7xrcN+uFBGxHKOXfl/7gYmnAACol81ZAYciYm/mLFvy0VDB+IJdAjBuo2v5iqK46Pz+2BQxOtfvbD8wdRQAAPU1G6Mi4GDUb1bALR04cOALe/bM3Dsz0/pyROuwmwZgy9opFedHZ/dt5S/B5iT/tYhImbMAZKEAAGiG/TE6InAgd5CduO7qwXtarfiC4YKwuZU/nS+KuLC+vn7RVv5SbA70W9347wBTTQEA0Cy1vU5wmw4fPHjwC7OzrS/YKcCkSym9u/Gf5weD4t2U0pKt/KXa3OLfjYj1zFkAakUBANBcjTwicDsHDx68d2YmPjszM/uF0UyB1hfCTAEaI11JKa5ExJXhMJ0timLJNv5K9eOjgX4A3IQCAGAy7I/RzoADMSFlwPU2bx/YLAYiIuwYIKeUirMpxcWUUns4TBcHg8EVW/izGMRHV/eZ4g9wBwoAgMmyeb6n0LMAAAPASURBVERgb0zQzoBbOXjw4L0RER8/ShCfdT0h45EupP+/vbvLaSMLwgD62WkbeGEFMytINpD9S2EDwwrIBjLSaAIG9zxc33RDCGHA0H/nSJZbfuo3q76qW7fN32ULf/vl0NG/GPqtyC7dFn/n+gH+BwEAwLzNejLgCednZ2cfk+SwfPBzkjhSwAPf2ra9TNpDkb+/2u9zpZs/SruURX46/QCvIAAAWI5J3yRwTJvN5o+maf5cr9fn63U+CQjmrHbx24sksYRvUuoG/3+i6Ac4CgEAwPKskmyzzMmAZ3kYECRJDQkOz4KCwf1YuJckV23bft3v85fFe5NXO/03Md4PcHQCAABOep9m4HeZmh9HDZJy3CBJyqLC1fnh+TxZfRrqBaekXpd3eL44fH+7u2svD8869/P0PaXTb7wf4I0JAADoa1KOCWxTFgnyBk5PTz+uViUgqMr1h+snlheuzusNCMnQwUIZq7/3S5vLpP1t1/32dv+le3bWfqH2KR3+usivHfZ1AJZDAADAr3xINxmwjaMCwMvtUor+2ukHYAACAACeq+4NMB0A/E7t8l8n+Te6/ACjIAAA4CVWSc5iOgDo1C7/98M3ACMjAADgGJp0twqYDoBlqF3+urVflx9g5AQAABxbvWawTgcIBGAe+mP9rukDmCABAABvrQYC9XYBxwVgOnbptvUr+AEmTgAAwHtrcn9CQCAA49Hf1m+sH2BmBAAADK1Jd+WgIwPwfvoj/bcpxb+CH2DGBAAAjM0qJQTYppsUAF7PGX6AhRMAADAF25QpgRoKNMO+DkxCf5z/Lgp+gMUTAAAwRR/SBQJ1WsAuAZbsNqXYv0kp9o3zA/ATAQAAc1FvG9ikCwg2EQwwL7fpuvl1pP9m0DcCYDIEAADM3Tbl/+4k3cJBRwiYgl1KkV+v4Ls7fADgRQQAACxVk+Q0ZUJAMMCQrlPG9XcpBX4d4weAoxIAAMB9TUooUBcOruNqQl5vn58LfOf0AXhXAgAAeJ66V6AfECQCAopa4CfdqH4t8J3RB2AUBAAAcBwCgnlT4AMweQIAAHgfNSBIhARj81RxnyjwAZgJAQAAjFcNCFbpAoJNuv/vk3d/o/HrF/P1qrykK+Jt0gdgsQQAADB9/YCgb/vIb/0AoRrDBML1I789VqzvUwr7h3TpAQAAAAAAAAAAAAAAAAAAAAAAAAAAAAAAAAAAAAAAAAAAAAAAAAAAAAAAAAAAAAAAAAAAAAAAAAAAAAAAAAAAAAAAAAAAAAAAAAAAAAAAAACAyfoPx4bqUTDyliUAAAAASUVORK5CYII=;" parent="1" vertex="1">
          <mxGeometry x="790" y="211" width="90" height="90" as="geometry" />
        </mxCell>
        <mxCell id="W4Yr8RHfZ50mKKwitmoW-172" value="ifile" style="text;html=1;strokeColor=none;fillColor=none;align=center;verticalAlign=middle;whiteSpace=wrap;rounded=0;fontFamily=Comic Sans MS;fontStyle=1;fontSize=16;" parent="1" vertex="1">
          <mxGeometry x="170" y="240" width="60" height="30" as="geometry" />
        </mxCell>
        <mxCell id="W4Yr8RHfZ50mKKwitmoW-173" value="" style="shape=image;verticalLabelPosition=bottom;labelBackgroundColor=default;verticalAlign=top;aspect=fixed;imageAspect=0;image=data:image/png,iVBORw0KGgoAAAANSUhEUgAAAgAAAAIACAYAAAD0eNT6AAAABHNCSVQICAgIfAhkiAAAAAlwSFlzAABN4AAATeAB/8H04AAAABl0RVh0U29mdHdhcmUAd3d3Lmlua3NjYXBlLm9yZ5vuPBoAABBlSURBVHic7d197Hb3fMDx991qiyqpjXpYxBZDhbG0Y0NRlJDOqGGISTxNbGxDsmYbyRhiC2Zi4mGrsIjJRDNB2nluLFvGUntoMBs6tPWU1uPdcvfeH6dTN51f71+v3znXdX1fr+Sk/zTn+zn3w++873Od65wCAAAAAAAAAAAAAAAAAAAAAAAAAAAAAAAAAAAAAAAAAAAAAAAAAAAAAAAAAAAAAAAAAAAAAAAAAAAAAAAAAAAAAAAAAAAAAAAAAAAAAAAAAAAAAAAAAAAAAAAAAAAAAAAAAAAAAAAAAAAAAAAAAAAAAAAAAAAAAAAAAAAAAAAAAAAAAAAAAAAAAAAAAAAAAAAAAAAAAAAAAAAAAAAAAAAAAAAAAAAAAAAAAAAAAAAAAAAAAAAAAAAAAAAAAAAAAAAAAAAAAAAAAAAAAAAAAAAAAAAAAAAAAAAAAAAAAAAAAGBW+5YegI10g+q+1UnVydVdqxsuOhGb5GD1mepj1b9U76suXHQiAHZ0r+o/m36I22yr2A5Ur6yODYC1c3T1J00/rJc+Ydi2c/uv6pQAWCuvaPkThG37t/3VrwTAWrhvdWXLnxxsY2zfrR4TsKeOXHoA1t6NqnOq45cehGEcUZ3RdGPg+QvPAlvriKUHYO09pPrppYdgOEdUf1U9Y+lBYFsJAHZy0tIDMKx91aur5y49CGwjHwGwkzOrn1l6CIb2oKZ7Az609CCwTQQAO3l5HvLD8k5tegDVe5ceBLaFJwGyk/3VMUsPAVd5VfXbTVcEgOvAPQDAJnlm9fr87ILrzF8iYNM8uXpzdb2lB4FNJgCATfS46m1Nj6gGdkEAAJvqEdXZ1fWXHgQ2kQAANtlDqnfnTYJw2AQAsOlOrc6tbrL0ILBJBACwDe5Zva/6iaUHgU0hAIBtcVL1weqEheeAjeBBQOxklQ8C+rXqcyvaF+vppdV9Fp7hU9UDqs8vPAfARtvf6t7zfseZZ2d+Z7e6Py/XZftM3mIJP5aPAIBtdNvqvOoOC88Ba0sAANvq1k1vELzL0oPAOhIAwDY7oenGwJMXngPWjgAAtt1Nm74ieK+lB4F1IgCAEdy4Oqe6/9KDwLoQAMAojq3eVT106UFgHQgAYCTXr95RnbH0ILA0AQCM5uimVwk/fulBYEkCABjRkdWbqqcsPQgsRQAAozqiel31rKUHgSUIAGBk+6pXVmcuPQjMTQAA6+qN1ZdnWusl1QtmWgvWggAA1tXHq/tVF8203vOql820FixOAADr7IKm1wtfONN6z65ek1elMwABAKy7T1enXPXfOTy9OqvpmwKwtQQAsAkubLoScMFM6z2xekt11EzrwewEALApLmq6J+D8mdZ7dPW31TEzrQezEgDAJvlydWr1TzOt97DqndUNZ1oPZiMAgE1zaXVa9eGZ1jutek913EzrwSwEALCJvlE9pDp3pvXuU/19dfxM68GeEwDApvp20yX6v5tpvXtU769uNtN6sKcEALDJLq8eWf3NTOvdrfpgdcuZ1oM9IwCATfe9plf7vnGm9e7UdP/BbWZaD/aEAAC2wYHqSU1P8ZvD7arzrvovbCQBAGyLg9Uzmu95/rdpuhJw4kzrwUoJAGDbPLd64Uxr3bL6UNO9AbBRBACwjZ5fnTnTWjdr+nbAPWZaD1ZCAADb6qXVs5o+Gthrxzc9J+A+M6wFKyEAgG32quqp1ZUzrHVc0xMDT5thLbjOBACw7f6yekLT1wX32g2b3h3wyzOsBdeJAABG8Jamt/tdMcNax1Rvv2o9WFsCABjFO6qHV/tnWOuopuh44gxrwa4IAGAk76keWn1rhrWOrM6qnj7DWnDYBAAwmg9UD6oum2GtfU1PJ3z2DGvBYREAwIj+oXpA9dWZ1ntZ9YczrQXXigAARvWx6n7VJTOt98LqJTOtBTsSAMDI/r3p4T2fn2m9M6tXNn00AIsSAMDoPlWdUn1mpvWeVb0uP39ZmD+AAPXZpgj45EzrPaV6U9M3BWARAgBg8oWmjwP+bab1Hl+9rTp6pvXgEAIA4Gpfarox8KMzrXdG0wOKrj/TevB9AgDgUF9r+orgR2Za76HVu6pjZ1oPKgEArNaBFe5ryZ9PX68eXL1vpvXuX51T3Xim9UAAACv1pRXu64QV7ms3vlWdXr17pvXu1RQcN51pPQYnAIBV+uIK93XrFe5rt/Y3vUDo7TOtd3L1wZaPHwYgAIBV2rYAqPpu9Zjqr2da7y7Vh1qf4wcGtb86uKLtjjPPzvwe0ur+vHyl9fqe/BFND/BZ1fHttP13dds5DgzgmggADsddW+1J8JR5x9/RvurPmi8C/qe6/SxHBvBDBACH42at9gT4p/OOf629uPki4OLqzvMcFsDVBACHY191eav7M/PZ6qg5D+Aw/EHzRcBXqpPmOSyAiQDgcJ3Xak9+vznv+Ifld5svAi6t7jnPYQEIAA7fc1vtie+S6kazHsHh+Y3qyuaJgG9Wp85zWMDoBACH62db/YnvFbMeweH79ep7zRMB32n6tgXAnhIA7MYFrf7E98RZj+DwPaq6onki4PLqEfMcFjAqAcBu7MVd8pc3PS53nZ3eav/O/Ljtu9Xj5jksYEQCgN24R3tz0rus6SS7zh7Y9B6BOSLgQPXkeQ4LGI0AYDf2VV9o7056Z853KLtyStMbBeeIgCurZ85zWMBIBAC79Tvt7YnvvdXPz3Y0h+/u1deaJwIOVr83z2EBoxAA7NbRTc+z3+t//b656QU66+iuTa9InisC/miewwJGIAC4Lh7bfCe/T1cvq05ren7+cTMc37VxYnv3ccg1bev6+GTWzL6lB2Dt7a+OWdG+Tqw+saJ9sRn2Vf/cco+x/VbTw3OWdmzzPszoL6rfagoCgF1xBYDr6v7N969f29XbWU2vMAbYFQHAKry75U+II25vra53LX5/AH6EAGAVbtu8N8PZrt5euvNvD8CPEgCsyinN96hc29XbgeoXr8XvD4Px+RAwl/OqZyw9xICOyP0AXAN/IIA5vaF65dJDDOiO1X2WHoL1IgCAuT2nOnfpIQZ076UHYL0IAGBuB6rHVB9depDB/MLSA7BeBACwhEubLkm/delBBvJzSw/AehEAwFK+0/So4Oc13a3O3rrB0gOwXgQAsLQ/rh7Z9NheYCYCAFgH76juVV249CAwCgEArIuPV3euXpirAbDnBACwTr5RPb+6XfXa6nvLjgPbSwAA6+ji6ulNVwTesfAssJUEALDOPlmd0fQs+9dUX1x2HIBxeBkQ62RfdffqxdUFLf+inU3aLt7FrzdbbN/SA7D29lfHrGhfJ1afWNG+oOr21elN9wzc6ge2W1RHLjjXOrqk6dcFKgHAzgQAm+iI6uZNMXDjhWe5Lu5UvXpF+xIAHOJ6Sw8AsAeubLrkvemXvfcvPQDby02AADAgAQAAAxIAADAgAQAAAxIAADAgAQAAAxIAADAgAQAAAxIAADAgAQAAAxIAADAgAQAAAxIAADAgAQAAAxIAADAgAQAAAxIAADAgAQAAAxIAADAgAQAAAxIAADAgAQAAAxIAADAgAQAAAxIAADAgAQAAAxIAADAgAQAAAxIAADAgAQAAAxIAADAgAQAAAxIAADAgAQAAAxIAADAgAQAAAxIAADAgAQAAAxIAADAgAQAAAxIAADAgAQAAAxIAADAgAQAAAxIAADAgAQAAAxIAADAgAQAAAxIAADAgAQAAAxIAADAgAQAAAxIAADAgAQAAAxIAADAgAQAAAxIAADAgAQAAAxIAADAgAQAAAxIAADAgAQAAAxIAADAgAQAAAxIAADAgAQAAAxIAADAgAQAAAxIAADAgAQAAAxIAADAgAQAAAxIAADAgAQAAAxIAADAgAQAAAxIAADAgAQAAAxIAADAgAQAAAxIAADAgAQAAAxIAADAgAQAAAxIAADAgAQAAAxIAADAgAQAAAxIAADAgAQAAAxIAADAgAQAAAxIAADAgAQAAAxIAADAgAQAAAxIAADAgAQAAAxIAADAgAQAAAxIAADAgAQAAAxIAADAgAQAAAxIAADAgAQAAAxIAADAgAQAAAxIAADAgAQAAAxIAADAgAQAAAxIAADAgAQAAAxIAADAgAQAAAxIAADAgAQAAAxIAADAgAQAAAxIAADAgAQAAAxIAADAgAQAAAxIAADAgAQAAAxIAADAgAQAAAxIAADAgAQAAAxIAADAgAQAAAxIAADAgAQAAAxIAADAgAQAAAxIAADAgAQAAAxIAADAgAQAAAxIAADAgAQAAAxIAADAgAQAAAxIAADAgAQAAAxIAADAgAQAAAxIAADAgAQAAAxIAADAgAQAAAxIAADAgAQAAAxIAADAgAQAAAxIAADAgAQAAAxIAADAgAQAAAxIAADAgAQAAAxIAADAgAQAAAxIAADAgAQAAAxIAADAgAQCwvo5a4b6uWOG+2AICAGB93WKF+7p4hftiCwgAgPV1yxXu66IV7ostIAAA1tetVrgvAcAhBADA+rr3CvclADiEAABYTydUv7TC/QkADiEAANbTw1rtz2gBwCEEAMD62Vc9bcX7/PyK9wdsuf3VwRVtd5x5dthUj251f+8OVl+ujpz1CFh7rgAArJejqheteJ/vrA6seJ9sOAEAsF5eUN1uxfs8e8X7AwbgIwCYz2Nb7aX/g9U3qxvMeRDAdhAAMI97VN9u9QHw9jkPgs3hIwCA5T2yen978y91l/+BXXEFAPbOvup51ZWt/l/+B5uuKBw/29EAW0UAwN54cHV+e3Pi/7/txbMdDbB1BACsznHVr1bvbW9P/Aerr1Q3meew2ETXW3oAhnLrpqCAERzT9Da/n7pqu291anX0TOu/qLpsprXYQPuWHoC1t7/pBxmwOT5X3aG6fOlBWF++BQCwfZ6Xkz87cAWAnbgCAJvl/Oqkpm8WwP/LFQCA7XFp9Zic/LkWBADAdjjQdPL/1NKDsBkEAMB2eHZ17tJDsDkEAMDme33150sPwWZxEyA7cRMgrLcPVw+svrv0IGwWVwAANtdHqjNy8mcXBAA7+c7SAwDX6Kzq/tVXlx6EzSQA2Mm/Lj0AcIgD1XOqJ1VXLDwLG0wAsJOPLj0A8H2XVadXL196EDaflwGxEwEA6+E/mt4k+ImlB2E7uALATs6pLll6CBjYF6unVnfNyZ8VEgDs5GvV05YeAgZ0WfX71e2qNzR99g8rc+TSA7ARPlndtrrbwnPACC5veqjPo5qe7Pe9ZcdhW7kHgGvrmU3B+ISlB4EtdEX1gersq7aLlx2HEXgSIIfr4dVrq5svPQhsuG9U72k64b+r+vqy4zAaAcBu/GTTV5FOqk5uujnpBotOBOvn8uqippv4fni7sPrHq/4fAAAAAAAAAAAAAAAAAAAAAAAAAAAAAAAAAAAAAAAAAAAAAAAAAAAAAAAAAAAAAAAAAAAAAAAAAAAAAAAAAAAAAAAAAAAAAAAAAAAAAAAAAAAAAAAAAAAAAAAAAAAAAAAAAAAAAAAAAAAAAAAAAAAAAAAAAAAAAAAAAAAAAAAAAAAAAAAAAAAAAAAAAAAAAAAAAAAAAAAAAAAAAAAAAAAAAAAAAAAAAAAAAAAAAAAAAAAAAAAAAAAAAAB+0P8CqK+NdbJqTm4AAAAASUVORK5CYII=;" parent="1" vertex="1">
          <mxGeometry x="153" y="206" width="92" height="92" as="geometry" />
        </mxCell>
      </root>
    </mxGraphModel>
  </diagram>
</mxfile>
